<svg xmlns="http://www.w3.org/2000/svg" height="1024" preserveAspectRatio="none" style="display: block;" version="1.1" viewBox="0 0 2048 1152" width="1820">
<defs>
	<linearGradient gradientUnits="userSpaceOnUse" id="Gradient1" x1="344.564" x2="388.873" y1="736.693" y2="865.814">
		<stop class="stop0" offset="0" stop-color="rgb(179,174,186)" stop-opacity="1"></stop>
		<stop class="stop1" offset="1" stop-color="rgb(238,230,215)" stop-opacity="1"></stop>
	</linearGradient>
	<linearGradient gradientUnits="userSpaceOnUse" id="Gradient2" x1="1201.27" x2="1191.76" y1="381.256" y2="394.235">
		<stop class="stop0" offset="0" stop-color="rgb(47,40,25)" stop-opacity="1"></stop>
		<stop class="stop1" offset="1" stop-color="rgb(25,27,37)" stop-opacity="1"></stop>
	</linearGradient>
</defs>
<path d="M 0 0 L 2048 0 L 2048 1152 L 0 1152 L 0 0 z" fill="rgb(248,244,230)" transform="translate(0,0)"></path>
<path d="M 1271.46 384.809 C 1270.56 378.842 1270.99 357.431 1270.99 350.389 L 1270.94 278.437 L 1270.94 154.008 C 1270.95 144.928 1269.8 83.806 1273.08 80.8462 C 1280.51 79.9835 1480.11 139.383 1502.73 145.953 L 1955.13 276.512 L 1955.08 742.835 L 1955.12 882.283 C 1955.12 893.865 1956.23 961.339 1952.96 967.691 C 1944.11 968.548 1841.69 936.415 1825.78 931.762 L 1590.35 863.886 L 1391.91 806.857 C 1352.43 795.501 1309.85 783.989 1270.99 771.37 L 1271.04 638.12 C 1233.44 639.48 1176.91 628.239 1141.72 616.232 C 1135.11 635.509 1125.26 646.808 1109.06 658.483 C 1107.9 767.736 1108.8 879.991 1109.12 989.344 L 1212.14 1012.68 C 1230.12 1016.65 1248.34 1020.29 1266.11 1025.04 C 1281.92 1029.05 1275.58 1051.07 1260.91 1048.76 C 1246.69 1046.52 1232.25 1042.79 1218.15 1039.77 C 1181.71 1032 1145.36 1023.84 1109.1 1015.27 C 1109.19 1030.74 1112.62 1076.74 1104.4 1088.11 C 1102.72 1090.42 1100.33 1092.16 1097.42 1092.42 C 1093.91 1092.74 1089.05 1090.36 1086.54 1087.94 C 1078.34 1080.02 1081.75 1027.8 1081.2 1014.07 C 1036.44 1025.7 990.604 1034.67 945.645 1045.62 C 939.168 1047.2 930.876 1050.03 924.442 1046.93 C 914.461 1042.11 915.615 1027.14 926.478 1024.23 C 977.459 1010.89 1030.58 1001.88 1081.33 987.774 C 1082.61 910.087 1081.8 829.628 1081.95 751.722 C 1067.42 784.4 1031.58 813.606 993.813 807.01 C 955.999 800.404 911.106 765.646 888.348 735.629 C 874.64 717.55 865.886 691.101 870.197 668.54 C 876.546 632.382 898.619 613.14 926.394 592.96 C 823.903 575.222 717.569 575.35 619.241 613.425 C 608.93 640.115 597.978 672.168 587.099 697.831 C 580.241 702.436 569.058 707.527 561.346 711.303 C 566.881 725.774 573.339 743.731 580.331 757.207 C 589.04 760.646 597.389 764.553 605.935 768.348 C 629.068 778.621 651.961 789.35 674.91 800.017 C 724.062 822.864 773.431 845.337 822.425 868.507 C 827.907 871.099 835.116 874.162 836.708 880.475 C 838.958 888.744 832.264 894.014 825.572 896.959 C 801.617 908.102 777.4 918.932 753.361 929.871 L 615.482 992.886 C 578.751 1010.14 541.839 1027 504.752 1043.47 C 493.041 1048.77 462.851 1063.51 451.944 1065.73 C 443.871 1067.38 390.804 1041.58 381.879 1037.56 L 280.768 992.193 L 226.013 967.824 C 217.197 963.928 201.749 957.65 193.995 952.76 C 184.782 937.73 172.512 900.831 166.036 883.374 L 132.813 794.816 L 105.913 723.946 C 101.217 711.471 96.1191 698.76 92.4242 685.993 C 90.6323 679.801 96.9068 670.304 102.601 667.639 C 118.981 659.972 135.54 652.696 151.987 645.177 L 253.62 598.381 L 410.698 525.681 C 427.655 517.918 444.821 509.93 461.63 501.867 C 483.555 491.349 487.94 516.318 494.404 532.222 C 509.074 525.847 588.914 487.636 597.856 486.202 L 599.653 487.712 C 602.115 493.763 597.739 501.938 595.307 508.227 C 613.703 500.588 641.226 485.714 660.392 479.948 C 662.066 479.445 663.17 481.15 664.273 482.35 C 664.099 492.692 628.042 587.215 622.366 604.207 C 695.349 576.738 780.617 569.93 857.932 575.838 C 880.886 577.591 911.57 581.349 933.732 587.651 C 957.464 574.749 971.794 567.193 983.3 541.607 C 999.465 505.664 1049.97 485.979 1086.08 502.897 C 1097.93 489.863 1110.2 473.413 1121.05 459.434 C 1137.36 438.078 1154.07 417.042 1171.2 396.337 C 1171.25 384.306 1171.68 384.378 1177.33 372.824 C 1178.53 370.381 1176.98 368.695 1175.79 366.583 C 1175.02 367.349 1174.49 368.712 1173.75 369.482 C 1171.41 372.868 1158.72 371.479 1157.05 368.317 C 1150.91 356.672 1164.33 342.466 1175.51 358.829 L 1176.89 355.375 C 1173.54 351.982 1170.67 348.729 1167.53 345.144 C 1176.84 331.428 1187.02 329.372 1191.71 347.377 C 1190.93 348.42 1191.25 347.829 1190.79 349.177 L 1192.91 349.878 C 1196.29 348.39 1196.68 347.972 1199.3 345.412 L 1199.84 342.778 C 1195.27 338.161 1190.42 338.348 1183.65 331.12 C 1186.38 325.954 1187.47 322.091 1193.57 320.408 C 1199.77 318.694 1203.83 323.399 1205.77 328.817 L 1204.9 333.647 L 1206.07 334.73 C 1210.61 331.243 1208.55 330.262 1213.4 329.017 C 1216.36 330.055 1220.72 336.966 1224.23 341.071 C 1232.12 350.302 1247.81 356.472 1254.49 366.034 C 1255.98 368.16 1250.7 373.307 1251.97 376.736 L 1253.34 377.334 C 1262.61 372.55 1266.72 377.061 1271.46 384.809 z" fill="rgb(30,28,35)" transform="translate(0,0)"></path>
<path d="M 1271.27 387.473 C 1270.04 468.308 1271.17 550.334 1270.82 631.293 C 1226.35 628.253 1185.51 624.551 1143.17 608.359 C 1149 577.952 1137.1 550.463 1117.76 527.318 C 1135.83 502.105 1155.76 477.391 1173.92 452.188 C 1182.02 440.945 1192.84 427.624 1199.91 415.822 C 1208.05 414.186 1213.84 408.902 1216.7 408.942 C 1221.3 422.78 1227.19 437.389 1239.37 416.121 C 1240.24 414.603 1238.2 409.147 1237.62 407.409 C 1248.14 416.821 1260.58 407.236 1254.44 394.17 L 1258.21 395.138 C 1264.22 397.374 1267.92 391.591 1271.27 387.473 z" fill="rgb(248,244,230)" transform="translate(0,0)"></path>
<path d="M 1167.53 345.144 C 1176.84 331.428 1187.02 329.372 1191.71 347.377 C 1190.93 348.42 1191.25 347.829 1190.79 349.177 L 1192.91 349.878 L 1195.16 350.656 C 1194.43 352.629 1196.53 357.225 1197.81 358.781 L 1196.91 359.188 C 1194.82 361.579 1192.32 363.824 1191.7 366.779 L 1191.98 367.481 L 1195.3 372.411 L 1193.49 373.152 C 1191.75 372.215 1191.18 371.926 1189.35 371.246 C 1186.33 372.505 1185.22 374.66 1183.24 377.36 C 1181.79 372.778 1190.78 366.355 1188.84 357.173 C 1187.03 354.97 1187.76 355.254 1185.38 354.318 C 1181.85 355.469 1180.69 355.758 1176.89 355.375 C 1173.54 351.982 1170.67 348.729 1167.53 345.144 z" fill="rgb(30,29,35)" transform="translate(0,0)"></path>
<path d="M 1228.25 397.838 C 1226.88 396.678 1226.15 395.893 1224.95 394.611 C 1222.85 396.051 1221.4 397.396 1219.51 399.073 L 1218.91 398.016 C 1220.21 395.067 1225.02 393.571 1225.38 392.913 C 1227.61 388.866 1228 385.498 1232.68 383.39 L 1232.29 386.571 L 1234.11 387.637 C 1241.74 391.585 1241.72 392.925 1249.88 389.789 L 1254.44 394.17 C 1260.58 407.236 1248.14 416.821 1237.62 407.409 L 1237.14 407.084 C 1235.38 401.723 1237.32 399.559 1234.77 395.758 C 1231.06 395.588 1231.92 395.798 1228.25 397.838 z" fill="rgb(30,29,35)" transform="translate(0,0)"></path>
<path d="M 1196.11 370.414 C 1200.32 373.994 1214.29 385.279 1216.07 389.183 L 1216.63 392.382 C 1215.32 393.138 1215.21 393.374 1213.73 393.523 C 1212.45 395.978 1211.25 397.528 1209.65 399.746 L 1207.93 400.376 C 1201.16 396.623 1194.97 387.912 1185.71 383.106 C 1188.25 379.58 1190.19 376.408 1193.72 373.87 L 1193.49 373.152 L 1195.3 372.411 L 1196.11 370.414 z" fill="rgb(232,207,131)" transform="translate(0,0)"></path>
<path d="M 1196.11 370.414 C 1200.32 373.994 1214.29 385.279 1216.07 389.183 L 1216.63 392.382 C 1215.32 393.138 1215.21 393.374 1213.73 393.523 C 1208 389.412 1196.25 380.221 1193.72 373.87 L 1193.49 373.152 L 1195.3 372.411 L 1196.11 370.414 z" fill="rgb(30,29,35)" transform="translate(0,0)"></path>
<path d="M 1183.24 377.36 C 1185.22 374.66 1186.33 372.505 1189.35 371.246 C 1191.18 371.926 1191.75 372.215 1193.49 373.152 L 1193.72 373.87 C 1190.19 376.408 1188.25 379.58 1185.71 383.106 C 1194.97 387.912 1201.16 396.623 1207.93 400.376 L 1209.65 399.746 L 1210.29 400.898 C 1207.55 403.21 1206.55 404.122 1204.15 406.885 L 1203.69 406.744 C 1202.31 404.15 1185.28 388.212 1182.09 386.733 L 1181.23 385.646 C 1181.22 380.091 1180.65 382.089 1183.24 377.36 z" fill="url(#Gradient2)" transform="translate(0,0)"></path>
<path d="M 1175.79 366.583 C 1175.02 367.349 1174.49 368.712 1173.75 369.482 C 1171.41 372.868 1158.72 371.479 1157.05 368.317 C 1150.91 356.672 1164.33 342.466 1175.51 358.829 L 1179.21 362.866 L 1176.83 363.086 C 1173.88 359.778 1170.74 354.784 1166.97 353.968 C 1164.18 357.372 1163.62 357.945 1162.19 362.104 L 1162.83 364.14 L 1165.57 364.459 C 1168.5 361.767 1166.63 362.434 1167.79 357.546 C 1169.61 359.57 1169.63 360.372 1170.43 363.07 C 1172.13 364.406 1173.76 365.895 1175.79 366.583 z" fill="rgb(30,29,35)" transform="translate(0,0)"></path>
<path d="M 1196.11 370.414 C 1197.88 366.977 1198.26 366.208 1200.86 363.237 C 1206.05 367.919 1221.49 379.901 1222.49 385.644 C 1221.17 388.18 1220.71 388.199 1218.03 389.596 L 1216.07 389.183 C 1214.29 385.279 1200.32 373.994 1196.11 370.414 z" fill="rgb(232,207,131)" transform="translate(0,0)"></path>
<path d="M 1182.09 386.733 C 1185.28 388.212 1202.31 404.15 1203.69 406.744 C 1203.05 407.135 1200.43 408.65 1199.9 408.563 C 1186.48 406.355 1173.28 401.291 1182.09 386.733 z" fill="rgb(232,207,131)" transform="translate(0,0)"></path>
<path d="M 1253.34 377.334 C 1262.61 372.55 1266.72 377.061 1271.46 384.809 L 1271.27 387.473 C 1267.92 391.591 1264.22 397.374 1258.21 395.138 C 1259.69 389.268 1257.98 381.293 1253.34 377.334 z" fill="rgb(30,29,35)" transform="translate(0,0)"></path>
<path d="M 1234.11 387.637 L 1235.06 387.439 C 1237.86 386.837 1239.11 386.755 1240.91 384.435 C 1241.57 381.7 1241.4 381.364 1240.95 378.511 L 1243.03 375.769 C 1244.55 380.105 1244.43 381.878 1249.66 382.705 C 1251.28 386.718 1249.74 385.885 1249.88 389.789 C 1241.72 392.925 1241.74 391.585 1234.11 387.637 z" fill="rgb(248,244,230)" transform="translate(0,0)"></path>
<path d="M 1228.25 397.838 C 1231.92 395.798 1231.06 395.588 1234.77 395.758 C 1237.32 399.559 1235.38 401.723 1237.14 407.084 C 1231.42 403.526 1228.02 406.152 1224.89 402.977 C 1225.34 399.796 1225.59 400.412 1228.25 397.838 z" fill="rgb(248,244,230)" transform="translate(0,0)"></path>
<path d="M 1176.89 355.375 C 1180.69 355.758 1181.85 355.469 1185.38 354.318 C 1187.76 355.254 1187.03 354.97 1188.84 357.173 C 1186.87 360.104 1185.79 361.987 1183.09 364.357 C 1180.37 364.295 1181.43 364.643 1179.21 362.866 L 1175.51 358.829 L 1176.89 355.375 z" fill="rgb(248,244,230)" transform="translate(0,0)"></path>
<path d="M 1196.91 359.188 L 1197.99 361.545 C 1196.82 364.488 1194.89 366.239 1191.98 367.481 L 1191.7 366.779 C 1192.32 363.824 1194.82 361.579 1196.91 359.188 z" fill="rgb(232,207,131)" transform="translate(0,0)"></path>
<path d="M 1279.02 89.5469 L 1928.95 276.894 C 1925.32 501.102 1929.56 728.233 1928.18 952.827 C 1924.97 953.423 1776.67 909.043 1760.81 904.481 L 1279.13 765.99 L 1279.02 89.5469 z" fill="rgb(248,244,230)" transform="translate(0,0)"></path>
<path d="M 1339.38 169.614 C 1349.5 170.36 1376.04 179.342 1387.1 182.521 L 1496.85 214.233 C 1623.51 250.337 1749.99 287.098 1876.27 324.515 C 1875.87 353.113 1876.53 382.03 1876.31 410.621 C 1876.25 418.53 1876.94 444.448 1875.25 450.693 C 1867.7 451.081 1767.7 419.12 1755.26 415.397 C 1654.14 385.091 1552.74 355.752 1451.06 327.382 C 1427.76 320.906 1404.52 314.2 1381.34 307.265 C 1368.39 303.449 1352.13 298.174 1339.16 295.315 C 1339.53 254.036 1338.24 210.57 1339.38 169.614 z" fill="rgb(30,28,35)" transform="translate(0,0)"></path>
<path d="M 1347.31 179.217 C 1367.85 184.247 1390.49 191.419 1410.96 197.366 C 1446.54 207.506 1482.06 217.87 1517.51 228.455 L 1710.46 283.654 C 1762.19 298.73 1816.71 316.036 1868.46 329.811 L 1868.51 441.658 C 1777.18 415.123 1685.79 386.267 1594.26 360.013 L 1427.28 312.584 C 1401.04 305.079 1372.63 297.491 1346.78 289.23 L 1346.87 220.19 C 1346.88 207.846 1346.42 191.047 1347.31 179.217 z" fill="rgb(248,244,230)" transform="translate(0,0)"></path>
<path d="M 1371.82 258.649 C 1394.14 264.063 1418.41 272.089 1440.93 278.434 C 1449.49 259.718 1470.85 267.336 1473.43 286.516 C 1486.28 290.893 1503 295.04 1516.61 299.228 C 1530.22 280.386 1542.4 291.013 1549.71 307.633 C 1562 312.103 1581.32 316.866 1594.39 320.47 C 1607.96 305.408 1621.18 312.575 1626.47 329.946 C 1640.88 333.95 1655.2 338.25 1669.43 342.843 C 1681.08 325.44 1695.63 334.156 1701.35 351.124 C 1733.28 360.965 1765.72 369.973 1797.72 379.515 C 1805.8 381.924 1836.24 390.149 1841.97 393.478 C 1843.53 396.396 1842.97 395.909 1842.21 399.684 C 1838.58 400.068 1833.55 398.266 1829.97 397.187 C 1788.54 384.706 1747.11 372.265 1705.55 360.221 C 1698.79 356.906 1695.77 364.223 1690.99 366.944 C 1688.41 369.039 1681.7 369.121 1679.12 367.229 C 1664.57 356.541 1676.25 350.094 1653.71 345.153 C 1644.09 343.045 1633.1 339.671 1624.19 337.604 C 1620.88 342.754 1618.21 345.285 1612 347.181 C 1599.85 350.89 1594.09 328.842 1591 327.661 C 1577.95 322.672 1561.29 318.981 1547.26 314.784 C 1534.68 331.187 1521.3 322.205 1514.91 306.107 C 1501.42 302.137 1484.9 296.877 1471.45 293.921 C 1459.77 310.51 1446.61 299.62 1439.69 285.857 C 1425.09 280.81 1407.12 276.911 1392.2 272.119 C 1385.63 270.008 1376.81 268.385 1370.86 265.231 C 1369.89 262.735 1370.85 261.727 1371.82 258.649 z" fill="rgb(30,28,35)" transform="translate(0,0)"></path>
<path d="M 1603.54 319.744 C 1616.71 320.702 1621.73 325.866 1614.61 338.443 C 1600.15 341.031 1597.83 330.366 1603.54 319.744 z" fill="rgb(118,118,136)" transform="translate(0,0)"></path>
<path d="M 1451.89 274.657 C 1463.99 275.435 1470 284.24 1461.15 294.456 C 1448.58 297.201 1445.46 284.157 1451.89 274.657 z" fill="rgb(118,118,136)" transform="translate(0,0)"></path>
<path d="M 1679.43 340.695 C 1692.42 341.456 1696.84 350.652 1688.58 360.999 C 1675.3 361.596 1673.69 350.503 1679.43 340.695 z" fill="rgb(118,118,136)" transform="translate(0,0)"></path>
<path d="M 1528.23 296.869 C 1540.03 296.831 1544.34 306.778 1536.91 315.891 C 1524.03 316.642 1520.12 306.619 1528.23 296.869 z" fill="rgb(118,118,136)" transform="translate(0,0)"></path>
<path d="M 1369.95 211.601 C 1372.74 211.653 1375.44 211.926 1378.13 212.715 C 1532.31 257.891 1687.19 301.387 1840.79 348.231 C 1842.27 348.681 1841.95 352.792 1841.98 354.143 C 1833.12 354.219 1796.49 342.461 1785.47 339.237 L 1684 309.515 L 1457.16 243.657 C 1430.82 235.774 1396.83 227.184 1371.56 218.319 C 1369.23 215.083 1369.89 216.188 1369.95 211.601 z" fill="rgb(30,28,35)" transform="translate(0,0)"></path>
<path d="M 1340.34 560.443 C 1346.65 560.316 1479.78 601.553 1495.22 607.568 C 1495.99 626.185 1497.55 759.392 1494.04 766.871 C 1489.17 766.277 1476.49 762.138 1471.25 760.566 L 1427.74 747.462 C 1399.31 738.947 1366.99 731 1339.27 721.772 C 1340.84 684.083 1339.07 643.972 1339.85 606.078 C 1340.15 591.235 1339.33 575.128 1340.34 560.443 z" fill="rgb(30,29,35)" transform="translate(0,0)"></path>
<path d="M 1347.16 569.298 C 1368.66 575.245 1390.69 582.891 1412.07 589.612 C 1436.99 597.448 1462.34 604.717 1487.15 612.732 C 1487.6 660.748 1487.64 708.767 1487.26 756.783 L 1470.38 752.015 C 1467.02 703.047 1430 704.987 1427.22 688.592 C 1428.5 684.226 1432.57 681.543 1436.27 677.29 C 1443.82 665.467 1443.62 653.617 1444 640.101 C 1452.15 633.319 1454.94 623.28 1448.06 613.757 C 1442.95 606.752 1431.29 615.193 1427 614.175 C 1394.26 606.392 1385.86 608.829 1383.52 644.77 C 1383.06 651.831 1387.94 656.46 1393.05 661.063 C 1396.47 671.812 1398.46 675.148 1396.89 686.466 C 1368.04 687.944 1354.29 689.532 1347.1 719.614 C 1346.75 669.557 1347.71 619.537 1347.16 569.298 z" fill="rgb(248,244,230)" transform="translate(0,0)"></path>
<path d="M 1389.35 694.214 C 1398.38 694.454 1407.08 732.323 1429.37 705.66 C 1448.81 715.473 1460.74 726.666 1461.64 749.473 L 1442.26 743.546 L 1354.48 718.32 C 1360.92 697.226 1369.76 698.406 1389.35 694.214 z" fill="rgb(181,203,188)" transform="translate(0,0)"></path>
<path d="M 1406.83 635.763 C 1418.83 640.509 1424.01 641.628 1436.44 640.196 C 1436.69 655.428 1437.06 664.733 1426.97 677.006 C 1402.37 692.905 1391.85 650.134 1406.83 635.763 z" fill="rgb(248,244,230)" transform="translate(0,0)"></path>
<path d="M 1398.13 616.937 C 1407.39 615.367 1414.9 620.977 1424.06 621.869 C 1427.73 622.226 1440.27 617.747 1441.91 620.467 C 1452.25 637.684 1429.54 633.908 1420.5 632.609 C 1392.64 621.997 1402.25 638.242 1392.17 650.574 C 1387.57 644.749 1392.78 623.235 1398.13 616.937 z" fill="rgb(102,102,120)" transform="translate(0,0)"></path>
<path d="M 1403.89 682.943 C 1410.24 687.771 1432.02 691.306 1419.75 705.671 C 1403.8 709.765 1401.35 694.989 1403.89 682.943 z" fill="rgb(248,244,230)" transform="translate(0,0)"></path>
<path d="M 1341.56 346.985 C 1361.88 351.377 1396.81 363.992 1418.48 369.756 C 1431.82 373.305 1484.83 388.515 1494.15 393.413 C 1494.51 394.206 1495.19 395.78 1495.2 396.643 C 1496.13 445.524 1495.55 494.747 1495.31 543.683 C 1495.3 546.147 1494.74 547.968 1493.32 549.968 C 1488.83 549.482 1485.56 548.317 1481.28 547.001 C 1433.99 532.478 1387.16 515.962 1339.71 502.038 L 1339.77 399.332 C 1339.77 391.694 1338.69 350.979 1341.56 346.985 z" fill="rgb(30,28,35)" transform="translate(0,0)"></path>
<path d="M 1347.19 356.283 C 1365.07 360.844 1386.21 367.772 1403.99 373.169 C 1431.71 381.568 1459.47 389.828 1487.28 397.948 C 1486.98 412.978 1487.62 429.936 1487.65 445.301 C 1487.64 477.131 1487.45 508.961 1487.08 540.79 C 1481.65 538.914 1476.25 536.99 1470.86 535.018 C 1468.19 511.06 1461.25 503.551 1443.01 488.346 C 1438.87 484.895 1434 482.385 1430.52 478.295 C 1433.15 475.064 1437.17 478.98 1444.41 471.903 L 1445.1 471.22 C 1458.5 446.997 1452.25 399.392 1423.32 390.324 C 1416.24 388.065 1408.53 388.858 1402.05 392.513 C 1385.98 401.397 1380.91 422.926 1382.93 439.934 C 1384.3 451.48 1388.91 460.726 1394.42 470.646 C 1386.31 471.111 1373.68 472.698 1367.25 477.714 C 1362.56 481.368 1357.24 500.509 1348.83 497.369 C 1345.61 492.385 1347.01 453.852 1347.03 445.632 L 1347.19 356.283 z" fill="rgb(248,244,230)" transform="translate(0,0)"></path>
<path d="M 1389.51 478.179 C 1391.95 477.766 1391.86 477.712 1394.25 478.24 L 1394.77 479.094 C 1404.65 494.837 1413.89 499.015 1429.99 487.956 C 1448.93 502.139 1457.29 509.515 1463.56 532.746 L 1448.79 528.163 C 1419.44 518.612 1390.35 509.981 1361.09 499.902 C 1370.37 483.097 1370.94 482.045 1389.51 478.179 z" fill="rgb(245,188,168)" transform="translate(0,0)"></path>
<path d="M 1407.74 397.254 C 1424.51 395.459 1434.73 402.477 1440.56 418.369 C 1446.12 433.505 1450.38 462.542 1431.31 469.429 C 1425.39 463.868 1443.26 443.966 1429.19 434.18 C 1412.99 428.486 1414.96 406.908 1402.27 405.917 C 1392.43 410.522 1393.05 436.865 1392.57 446.767 C 1387.3 427.304 1388.45 407.922 1407.74 397.254 z" fill="rgb(102,102,120)" transform="translate(0,0)"></path>
<path d="M 1404.33 412.711 C 1407.6 416.189 1411.24 430.083 1415.74 433.981 C 1428.23 444.815 1434.89 444.481 1420.29 459.811 C 1396.42 478.355 1396.9 428.027 1404.33 412.711 z" fill="rgb(248,244,230)" transform="translate(0,0)"></path>
<path d="M 1419.28 469.499 C 1420.53 468.838 1420.01 469.055 1421.6 469.121 C 1422.3 474.597 1424.44 482.463 1420.05 485.938 C 1415.96 486.434 1415.21 486.452 1411.09 485.899 C 1405.72 482.947 1401.15 478.045 1404.37 471.744 C 1407.94 469.612 1414.16 470.053 1419.28 469.499 z" fill="rgb(248,244,230)" transform="translate(0,0)"></path>
<path d="M 1533.61 688.163 C 1548.65 691.58 1566.82 697.642 1582.08 702.043 L 1692.36 734.533 L 1808.33 768.525 C 1814.86 770.463 1849.49 780.27 1853.68 783.102 C 1854.82 786.565 1854.39 785.792 1853.42 789.811 C 1843.51 787.858 1827.11 782.289 1816.84 779.224 L 1745.39 758.055 L 1613.7 719.332 C 1595.49 714.071 1577.11 709.182 1559.04 703.431 C 1552 701.189 1537.62 699.337 1532.83 694.098 C 1532.02 690.64 1532.03 692.082 1533.61 688.163 z" fill="rgb(30,28,35)" transform="translate(0,0)"></path>
<path d="M 1534.53 732.755 C 1595.5 751.191 1656.59 769.256 1717.79 786.947 C 1734.26 791.734 1844.55 821.336 1853.13 828.181 C 1854.47 831.338 1854.22 829.989 1852.88 834.284 C 1818.29 824.734 1537.46 743.404 1533.15 739.425 C 1532.46 735.889 1532.84 736.628 1534.53 732.755 z" fill="rgb(30,28,35)" transform="translate(0,0)"></path>
<path d="M 1532.92 643.589 C 1538.43 643.665 1566.58 652.491 1574.1 654.706 L 1666.38 682.013 L 1791.52 718.752 C 1807.35 723.419 1839.42 731.784 1853.09 737.362 C 1855.32 740.356 1854.71 739.276 1854.32 743.803 C 1848.36 744.579 1806.56 731.374 1798.36 728.965 C 1760.07 717.313 1721.71 705.909 1683.28 694.754 L 1585.67 666.143 C 1572.61 662.301 1546.37 655.355 1534.48 650.563 C 1532.32 647.537 1533 647.962 1532.92 643.589 z" fill="rgb(30,28,35)" transform="translate(0,0)"></path>
<path d="M 1533.76 473.32 C 1539.49 473.974 1566.62 482.422 1573.72 484.477 C 1608.58 494.402 1643.35 504.676 1678 515.3 L 1798.24 550.194 C 1808.84 553.294 1844.55 563.118 1853.44 567.292 C 1855.28 570.453 1854.74 569.538 1854.51 573.679 C 1845.38 573.443 1824.52 566.218 1814.97 563.357 L 1745.67 542.676 C 1680.53 523.459 1614.74 504.983 1549.75 485.1 C 1544.76 483.573 1535.2 482.682 1532.11 478.424 C 1531.86 475.208 1531.61 476.52 1533.76 473.32 z" fill="rgb(30,28,35)" transform="translate(0,0)"></path>
<path d="M 1532.38 517.569 C 1541.9 518.895 1576.34 529.928 1587.42 533.226 L 1700.32 566.625 L 1809.95 598.479 C 1816.67 600.434 1849.64 609.623 1853.91 612.022 C 1855.4 614.883 1854.88 614.587 1854.56 618.092 C 1849.3 618.375 1808.16 605.905 1799.75 603.495 C 1742.64 587.092 1685.62 570.381 1628.69 553.364 L 1565.78 534.63 C 1556.34 531.83 1542.09 528.291 1533.25 524.853 C 1531.29 521.455 1531.94 522.172 1532.38 517.569 z" fill="rgb(30,28,35)" transform="translate(0,0)"></path>
<path d="M 1531.27 428.484 C 1537.75 428.662 1581.23 442.065 1590.54 444.762 C 1646.43 460.839 1702.23 477.211 1757.95 493.879 L 1820.02 511.972 C 1829.05 514.58 1845.26 518.66 1853.36 521.935 C 1855.39 524.882 1854.78 524.069 1854.76 528.194 C 1844.75 528.432 1804.51 515.076 1793.08 511.751 C 1750.42 499.509 1707.83 487.027 1665.31 474.306 C 1625.08 462.503 1571.46 448.854 1532.57 435.357 C 1530.38 432.049 1531.01 433.099 1531.27 428.484 z" fill="rgb(30,28,35)" transform="translate(0,0)"></path>
<path d="M 578.036 765.874 C 585.615 765.254 796.689 864.878 820.811 876.49 C 720.509 924.77 617.051 967.724 516.586 1015.85 C 495.555 1025.92 472.115 1036.58 450.604 1045.25 C 417.227 1032.33 382.553 1014.78 349.754 1000.11 C 302.726 979.062 254.835 958.767 208.1 937.215 C 294.246 898.216 380.149 858.681 465.804 818.613 L 538.939 784.8 C 549.714 779.806 568.331 771.808 578.036 765.874 z" fill="rgb(248,244,230)" transform="translate(0,0)"></path>
<path d="M 568.115 797.035 L 568.653 796.978 C 569.246 796.909 569.84 796.842 570.436 796.808 C 575.984 796.492 656.415 833.451 661.639 838.432 C 663.322 840.036 663.819 840.548 663.847 842.829 C 649.805 850.624 633.313 857.733 618.579 864.454 C 593.14 875.752 567.835 887.348 542.669 899.241 C 504.759 917.168 466.69 934.757 428.467 952.008 C 415.242 958.068 384.263 973.322 372.312 977.046 C 362.674 977.751 343.627 969.101 335.126 964.006 C 324.681 957.747 278.45 940.946 275.603 932.75 C 278.855 928.772 538.955 810.468 568.115 797.035 z" fill="rgb(30,28,35)" transform="translate(0,0)"></path>
<path d="M 570.112 804.851 C 576.623 804.741 641.343 836.124 651.507 841.286 C 557.471 881.777 464.162 928.952 370.012 970.159 C 362.214 969.552 301.215 939.367 289.198 933.896 C 316.371 919.713 357.944 902.271 386.974 889.041 L 570.112 804.851 z" fill="rgb(248,244,230)" transform="translate(0,0)"></path>
<path d="M 578.936 899.849 C 588.459 902.962 641.615 927.391 647.263 933.421 L 647.146 935.132 C 644.729 938.103 556.14 978.185 546.249 982.41 C 537.179 985.938 493.993 958.639 482.307 954.811 C 478.929 953.705 478.185 952.029 478.056 948.851 C 480.719 944.833 496.872 938.56 502.145 936.029 C 527.631 923.799 553.696 912.59 578.936 899.849 z" fill="rgb(30,28,35)" transform="translate(0,0)"></path>
<path d="M 579.95 908.115 C 598.234 916.175 616.525 925.176 634.686 933.643 C 605.042 946.46 573.961 961.454 544.445 975.047 C 539.293 975.914 498.816 954.103 490.649 950.13 C 513.852 936.853 554.084 920.787 579.95 908.115 z" fill="rgb(248,244,230)" transform="translate(0,0)"></path>
<path d="M 466.541 521.804 C 470.129 522.6 474.791 536.325 476.302 540.095 C 468.13 543.702 456.96 548.253 449.608 552.853 C 448.303 555.257 446.386 560.215 445.249 562.925 C 386.723 590.428 326.243 614.715 268.337 643.452 C 266.436 644.396 266.245 646.394 265.968 648.125 C 269.394 656.556 276.78 668.761 281.406 676.958 L 306.701 721.947 L 337.217 776.23 C 342.549 785.714 356.377 818.741 370.133 812.999 C 414.985 794.278 458.929 770.872 503.957 752.618 C 512.845 733.254 520.616 708.851 529.446 688.305 C 538.683 709.273 546.75 731.488 554.869 752.971 C 516.556 771.532 474.441 789.489 435.289 807.968 C 404.159 821.64 219.094 911.514 201.438 912.525 C 196.154 907.293 166.688 826.494 161.66 813.47 C 151.332 787.047 141.302 760.508 131.574 733.858 C 125.798 718.447 118.61 700.636 113.78 685.106 C 122.51 679.896 142.367 671.509 152.242 667.013 L 224.745 633.893 L 466.541 521.804 z" fill="rgb(248,244,230)" transform="translate(0,0)"></path>
<path d="M 1031.82 516.363 C 1045.93 517.914 1053.89 522.598 1065.55 529.752 C 1057.68 542.261 1035.09 569.86 1025.14 581.185 C 1016.26 579.815 1013.07 579.344 1004.38 582.668 C 984.299 590.349 974.515 612.196 990.393 629.309 C 982.627 639.176 974.297 649.063 966.309 658.787 C 958.252 651.876 949.487 644 940.891 637.939 C 937.473 641.212 933.271 646.172 930.02 649.787 C 934.751 654.263 941.241 658.738 946.557 662.654 C 944.351 665.482 943.197 666.59 942.464 670.189 C 943.373 675.301 977.625 699.99 983.921 704.615 C 985.912 702.667 988.451 699.736 990.404 697.622 C 994.138 700.684 1018.74 725.124 1020.45 704.799 C 1020.98 698.559 1000.44 684.967 995.032 680.875 C 1002.81 671.674 1009.27 662.012 1017.56 652.686 C 1026.91 653.544 1034.8 654.153 1043.48 649.861 C 1061.7 640.855 1065.33 623.142 1057.1 605.784 C 1065.21 596.624 1084.44 570.612 1091.36 560.552 C 1098.11 571.137 1100.14 577.129 1102.71 589.107 C 1103.19 591.861 1103.55 594.633 1103.82 597.415 C 1108.84 646.137 1070.54 644.881 1058.47 672.205 C 1046.72 698.813 1056.9 742.062 1030.03 770.879 C 991.782 811.896 958.266 787.715 925.016 762.224 C 858.325 711.098 862.326 639.447 934.19 597.284 C 944.951 589.622 961.869 582.022 971.176 573.048 C 996.889 548.256 988.251 519.984 1031.82 516.363 z" fill="rgb(232,207,131)" transform="translate(0,0)"></path>
<path d="M 589.455 496.939 L 590.069 496.975 L 590.856 497.956 C 589.636 503.29 586.611 508.535 584.957 513.802 C 577.931 536.173 569.508 558.255 561.423 580.298 C 546.985 619.923 532.077 659.375 516.702 698.646 C 510.606 714.228 504.713 731.487 498.003 746.566 C 486.505 750.869 471.733 758.605 460.069 763.708 C 431.125 776.372 402.252 790.875 373.437 803.658 L 372.712 803.653 C 372.463 802.611 386.349 766.787 387.861 762.55 C 403.862 716.304 419.337 669.877 434.284 623.28 C 439.936 605.729 448.691 573.732 455.445 557.917 C 498.813 539.646 546.766 517.189 589.455 496.939 z" fill="rgb(248,244,230)" transform="translate(0,0)"></path>
<path d="M 441.874 572.963 C 442.102 575.482 436.424 590.439 435.227 593.765 C 405.192 606.809 375.269 620.107 345.461 633.658 C 336.759 637.556 300.689 651.371 297.456 657.979 L 298.171 659.379 C 300.645 660.195 304.584 660.395 307.048 659.344 C 349.032 641.438 390.476 620.253 432.775 603.282 C 429.82 611.123 427.369 619.933 424.329 628.169 C 407.417 635.186 319.767 672.854 310.602 680.474 L 310.644 683.26 C 314.14 684.058 319.215 683.359 322.412 681.93 C 355.175 667.286 388.494 651.707 421.457 637.6 C 418.35 646.688 415.614 654.878 413.051 664.122 C 386.422 675.8 359.884 687.685 333.439 699.776 C 329.311 701.642 321.597 704.271 324.644 710.149 C 330.077 711.135 359.118 696.717 366.25 693.439 L 409.809 673.711 L 402.12 698.676 C 389.497 706.332 340.858 723.274 335.34 732.414 L 335.763 733.917 C 342.299 736.394 354.012 729.29 360.454 726.359 L 398.263 709.204 C 395.22 717.296 392.335 726.002 389.462 734.201 C 382.152 737.761 350.065 748.351 351.164 756.615 C 357.06 759.398 379.365 747.329 385.957 744.131 C 382.979 753.379 380.307 761.191 376.746 770.216 C 371.309 772.774 361.756 776.295 360.558 783.014 C 364.902 785.048 369.352 782.465 373.291 780.617 C 369.27 789.066 366.312 796.337 362.894 805.067 C 353.375 789.411 343.966 771.429 334.723 755.303 C 314.275 719.781 294.189 684.053 274.466 648.123 L 441.874 572.963 z" fill="rgb(248,244,230)" transform="translate(0,0)"></path>
<path d="M 654.944 489.189 L 655.49 489.927 C 631.784 557.889 606.999 625.47 581.143 692.645 C 575.097 695.904 565.264 699.999 558.764 702.942 L 553.995 691.035 L 540.851 658.5 C 556.191 613.426 575.614 563.262 592.151 518.029 C 606.665 512.776 641.631 496.219 654.944 489.189 z" fill="rgb(248,244,230)" transform="translate(0,0)"></path>
<path d="M 1937 279.502 L 1947 282.42 L 1946.93 959.056 C 1944.24 957.947 1939.85 956.721 1936.93 955.821 L 1937 279.502 z" fill="rgb(248,244,230)" transform="translate(0,0)"></path>
<path d="M 1111.69 534.441 C 1111.96 534.581 1112.23 534.72 1112.5 534.86 C 1122.98 544.213 1133.98 567.422 1136.11 580.451 C 1140.19 605.335 1132.49 629.5 1113.09 645.503 C 1104.29 652.764 1091.14 660.31 1086.1 670.414 C 1081.13 680.388 1082.52 696.301 1082.25 707.568 C 1081.76 727.655 1077.03 749.038 1065.24 765.6 C 1051.55 784.819 1033.67 794.983 1010.88 799.046 C 1006.77 799.669 1005.76 799.795 1001.6 799.507 C 1002.45 798.455 1018.39 791.733 1023.77 787.791 C 1049.17 769.175 1056.89 738.939 1060.23 709.23 C 1061.3 699.8 1062.43 682.375 1067.02 674.916 C 1080.89 652.384 1107.41 647.479 1111.73 615.463 C 1114.64 593.935 1109.18 571.212 1096.09 553.65 C 1100.93 549.006 1107.39 540.051 1111.69 534.441 z" fill="rgb(232,207,131)" transform="translate(0,0)"></path>
<path d="M 1099.46 664.708 C 1101.86 667.083 1101 687.799 1101.01 692.415 L 1101.01 752.609 L 1100.92 957.29 C 1100.95 973.586 1102.29 1077.36 1099.29 1082.35 C 1096.6 1084.5 1096.04 1084.45 1092.55 1084.55 C 1088.16 1077.83 1089.73 1041.89 1089.75 1032.08 L 1089.87 931.049 L 1089.72 767.029 C 1089.72 740.468 1089.46 712.75 1090.22 686.179 C 1090.43 679.068 1095.56 670.633 1099.46 664.708 z" fill="rgb(170,170,196)" transform="translate(0,0)"></path>
<path d="M 1157.49 424.961 C 1158.27 421.077 1168.96 408.555 1172.55 406.045 L 1174.6 406.932 L 1175.99 405.945 L 1177.2 406.553 C 1177.12 409.041 1177.1 409.111 1175.5 411.105 L 1176.47 413.218 C 1179.01 409.908 1178.16 409.984 1181.56 408.861 L 1182.32 410.145 C 1181.72 411.192 1181.03 412.488 1180.33 413.446 L 1181.33 415.227 C 1184.03 412.197 1183.11 412.266 1186.4 411.712 C 1186.56 414.502 1186.85 413.24 1185.6 415.653 C 1178.35 423.791 1170.2 435.461 1163.53 444.446 L 1128.23 491.976 C 1118.96 503.983 1051.52 594.137 1047.23 595.379 L 1046.18 593.907 L 1043.97 591.479 L 1041.42 589.419 C 1040.25 589.668 1039.3 590.181 1038.27 590.764 L 1039.25 589.399 L 1036.57 586.216 L 1035.09 585.111 L 1032.78 584.191 C 1033.28 581.704 1146.81 436.917 1157.49 424.961 z" fill="rgb(232,207,131)" transform="translate(0,0)"></path>
<path d="M 1176.47 413.218 C 1179.01 409.908 1178.16 409.984 1181.56 408.861 L 1182.32 410.145 C 1181.72 411.192 1181.03 412.488 1180.33 413.446 L 1181.33 415.227 C 1184.03 412.197 1183.11 412.266 1186.4 411.712 C 1186.56 414.502 1186.85 413.24 1185.6 415.653 C 1178.35 423.791 1170.2 435.461 1163.53 444.446 L 1128.23 491.976 C 1118.96 503.983 1051.52 594.137 1047.23 595.379 L 1046.18 593.907 L 1043.97 591.479 L 1041.42 589.419 C 1087.31 531.358 1132.33 472.618 1176.47 413.218 z" fill="rgb(232,207,131)" transform="translate(0,0)"></path>
<path d="M 1181.33 415.227 C 1184.03 412.197 1183.11 412.266 1186.4 411.712 C 1186.56 414.502 1186.85 413.24 1185.6 415.653 C 1178.35 423.791 1170.2 435.461 1163.53 444.446 L 1128.23 491.976 C 1118.96 503.983 1051.52 594.137 1047.23 595.379 L 1046.18 593.907 C 1047.18 591.879 1054.31 582.633 1056.05 580.285 C 1066.98 565.521 1078.57 551.207 1089.81 536.656 C 1120.81 496.557 1151.32 456.077 1181.33 415.227 z" fill="rgb(232,207,131)" transform="translate(0,0)"></path>
<path d="M 1180.33 413.446 L 1181.33 415.227 C 1151.32 456.077 1120.81 496.557 1089.81 536.656 C 1078.57 551.207 1066.98 565.521 1056.05 580.285 C 1054.31 582.633 1047.18 591.879 1046.18 593.907 L 1043.97 591.479 C 1055.17 578.604 1067.88 560.141 1079.02 546.216 C 1113.77 502.781 1146.47 457.532 1180.33 413.446 z" fill="rgb(41,31,16)" transform="translate(0,0)"></path>
<path d="M 1157.49 424.961 C 1158.27 421.077 1168.96 408.555 1172.55 406.045 L 1174.6 406.932 C 1129.26 468.377 1081.37 525.774 1036.57 586.216 L 1035.09 585.111 L 1032.78 584.191 C 1033.28 581.704 1146.81 436.917 1157.49 424.961 z" fill="rgb(41,31,16)" transform="translate(0,0)"></path>
<path d="M 1035.09 585.111 L 1032.78 584.191 C 1033.28 581.704 1146.81 436.917 1157.49 424.961 C 1154.69 431.995 1146.41 441.532 1141.69 447.892 C 1108.79 492.165 1072.67 533.85 1039.74 578.067 C 1038.38 579.898 1036.07 583.155 1035.09 585.111 z" fill="rgb(232,207,131)" transform="translate(0,0)"></path>
<path d="M 1175.5 411.105 L 1176.47 413.218 C 1132.33 472.618 1087.31 531.358 1041.42 589.419 C 1040.25 589.668 1039.3 590.181 1038.27 590.764 L 1039.25 589.399 C 1041.9 584.259 1049.5 574.917 1053.11 569.856 C 1066.53 550.996 1081.59 533.544 1095.95 515.404 C 1122.97 481.024 1149.49 446.254 1175.5 411.105 z" fill="rgb(41,31,16)" transform="translate(0,0)"></path>
<path d="M 450.043 1052.41 C 463.315 1049.48 491.464 1035.53 504.794 1029.4 L 597.256 986.833 L 766.646 909.494 C 777.359 904.523 819.721 887.262 825.007 880.167 C 828.04 879.589 826.774 879.422 829.893 881.472 C 830.193 883.437 830.503 883.501 828.94 885.361 C 826.542 888.215 820.66 891.284 817.162 892.85 C 793.288 903.537 769.422 914.342 745.64 925.23 L 580.511 1000.91 C 540.926 1019.02 501.167 1037.1 461.418 1054.92 C 450.669 1059.74 447.783 1059.02 436.817 1054.32 C 394.53 1035.36 352.522 1015.88 310.159 997.08 L 237.94 965.02 C 226.279 959.827 209.95 953.147 199.224 947.359 C 197.278 943.506 195.155 939.792 194.316 935.562 L 195.938 935.094 C 197.325 939.278 197.035 940.716 201.174 942.674 C 218.017 950.641 235.427 957.908 252.529 965.307 C 277.182 976.059 301.755 986.994 326.245 998.112 L 403.381 1033.12 C 415.096 1038.43 438.825 1049.82 450.043 1052.41 z" fill="rgb(184,183,190)" transform="translate(0,0)"></path>
<path d="M 533.478 678.352 L 537.051 666.854 C 548.516 698.383 560.42 729.751 572.759 760.948 C 555.281 767.114 517.555 786.222 498.654 795.033 L 345.512 866.217 L 241.349 913.654 C 233.766 917.105 201.375 931.315 195.938 935.094 L 194.316 935.562 C 192.149 929.207 189.774 923.49 187.217 917.293 L 191.28 914.637 C 200.64 923.783 208.737 920.001 219.501 915.226 C 304.104 877.692 387.676 838.094 471.54 798.981 C 490.138 790.423 508.79 781.984 527.495 773.662 C 536.86 769.489 555.826 761.583 563.659 755.975 C 559.429 741.828 540.302 692.056 533.478 678.352 z" fill="url(#Gradient1)" transform="translate(0,0)"></path>
<path d="M 187.217 917.293 C 179.015 897.106 97.9616 687.896 100.093 680.308 C 100.813 677.747 104.271 675.109 106.516 673.79 C 120.365 665.652 139.786 658.796 154.897 651.941 L 255.829 605.501 L 405.876 535.783 C 426.756 526.173 447.549 515.952 468.786 507.27 C 478.061 503.478 487.583 529.592 487.114 535.268 L 485.009 536.184 C 478.255 534.329 477.999 521.864 473.605 516.649 C 471.873 514.593 469.753 513.575 467.072 513.542 C 463.231 513.495 413.285 538.572 404.896 542.401 L 184.694 644.292 C 170.824 650.755 114.812 674.654 107.038 681.748 C 106.815 682.525 106.275 683.733 106.248 684.503 C 105.863 695.532 181.683 882.885 191.28 914.637 L 187.217 917.293 z" fill="rgb(184,183,190)" transform="translate(0,0)"></path>
<path d="M 1078.72 997.185 L 1080.06 997.091 L 1081.15 998.896 C 1081.21 1001.42 1081.62 1003.73 1080.37 1005.78 C 1074.74 1008.47 1040.57 1015.72 1032.24 1017.63 C 997.857 1025.51 963.517 1033.56 929.217 1041.78 C 926.294 1039.47 925.747 1037.97 925.814 1034.49 C 929.582 1029.54 968.315 1022.41 976.864 1020.46 L 1078.72 997.185 z" fill="rgb(170,170,196)" transform="translate(0,0)"></path>
<path d="M 1109.12 997.912 C 1125.49 1001.43 1259.92 1030.23 1265.87 1033.96 C 1267.65 1037.62 1267.05 1036.82 1266.46 1041.46 C 1258.78 1042.18 1124.62 1011.31 1110.21 1007.09 C 1108.41 1004.65 1109.03 1001.2 1109.12 997.912 z" fill="rgb(170,170,196)" transform="translate(0,0)"></path>
<path d="M 1187.26 415.651 L 1189.55 414.705 L 1190.35 416.148 C 1186.95 424.964 1061.81 591.222 1053.39 598.72 L 1052.23 598.81 C 1055.35 591.726 1073.67 568.531 1079.34 561.052 C 1096.41 538.605 1113.35 516.065 1130.16 493.432 L 1128.23 491.976 L 1163.53 444.446 C 1170.2 435.461 1178.35 423.791 1185.6 415.653 L 1187.26 415.651 z" fill="rgb(232,207,131)" transform="translate(0,0)"></path>
<path d="M 1185.6 415.653 L 1187.26 415.651 C 1169.33 441.7 1149.16 468.023 1130.16 493.432 L 1128.23 491.976 L 1163.53 444.446 C 1170.2 435.461 1178.35 423.791 1185.6 415.653 z" fill="rgb(41,31,16)" transform="translate(0,0)"></path>
<path d="M 1209.43 348.51 L 1213.98 340.313 C 1224.33 350.95 1231.56 358.17 1244.2 366.072 C 1239 370.434 1233.95 374.964 1229.04 379.655 C 1223.39 374.664 1207.99 361.879 1203.78 357.41 L 1202.27 356.127 C 1201.19 356.338 1201.11 356.144 1199.92 355.887 L 1199.92 354.153 C 1202.29 349.861 1202.68 349.104 1206.24 345.782 L 1207.18 347.145 L 1209.43 348.51 z" fill="rgb(232,207,131)" transform="translate(0,0)"></path>
<path d="M 1202.27 356.127 C 1201.19 356.338 1201.11 356.144 1199.92 355.887 L 1199.92 354.153 C 1202.29 349.861 1202.68 349.104 1206.24 345.782 L 1207.18 347.145 C 1205.58 350.26 1204.13 353.155 1202.27 356.127 z" fill="rgb(248,244,230)" transform="translate(0,0)"></path>
<path d="M 1202.27 356.127 C 1204.13 353.155 1205.58 350.26 1207.18 347.145 L 1209.43 348.51 L 1203.78 357.41 L 1202.27 356.127 z" fill="rgb(70,63,39)" transform="translate(0,0)"></path>
<path d="M 978.905 669.392 L 976.903 666.783 C 978.526 661.769 995.477 640.344 1000.09 638.09 L 1003 639.295 L 1007.15 641.886 L 1008.3 643.632 C 1005.38 649.079 989.259 670.557 984.149 672.606 L 981.194 671.546 L 978.905 669.392 z" fill="rgb(232,207,131)" transform="translate(0,0)"></path>
<path d="M 978.905 669.392 L 976.903 666.783 C 978.526 661.769 995.477 640.344 1000.09 638.09 L 1003 639.295 C 995.273 649.627 986.099 659.628 978.905 669.392 z" fill="rgb(232,207,131)" transform="translate(0,0)"></path>
<path d="M 978.905 669.392 C 986.099 659.628 995.273 649.627 1003 639.295 L 1007.15 641.886 C 1003.66 643.529 983.62 667.976 981.194 671.546 L 978.905 669.392 z" fill="rgb(41,31,16)" transform="translate(0,0)"></path>
<path d="M 1053.52 504.296 C 1066.14 503.533 1069.43 504.814 1081.6 508.312 C 1078.53 512.077 1072.3 520.465 1068.56 522.296 L 1066.49 521.091 C 1054.19 512.77 1047.26 511.025 1033.27 508.339 C 1040.75 506.448 1045.88 505.455 1053.52 504.296 z" fill="rgb(232,207,131)" transform="translate(0,0)"></path>
<path d="M 989.884 607.418 C 998.052 589.989 1003.69 590.029 1021.56 585.773 C 1015.92 592.238 1003.17 609.5 998.44 613.802 C 997.363 618.253 998.205 617.41 995.301 620.396 L 993.399 620.388 C 992.636 619.445 992.106 618.999 991.699 617.934 C 989.413 614.969 989.91 611.289 989.884 607.418 z" fill="rgb(30,29,35)" transform="translate(0,0)"></path>
<path d="M 989.884 607.418 C 998.052 589.989 1003.69 590.029 1021.56 585.773 C 1015.92 592.238 1003.17 609.5 998.44 613.802 L 998.8 612.862 C 1001.83 604.783 1010.89 598.415 1012.36 590.49 L 1011.15 589.615 C 1001.18 592.822 994.895 600.545 991.743 610.156 L 989.884 607.418 z" fill="rgb(184,183,190)" transform="translate(0,0)"></path>
<path d="M 989.884 607.418 L 991.743 610.156 C 991.763 612.422 991.9 615.768 991.699 617.934 C 989.413 614.969 989.91 611.289 989.884 607.418 z" fill="rgb(118,118,136)" transform="translate(0,0)"></path>
<path d="M 1035.58 592.535 L 1037.21 593.732 C 1037.25 598.187 1010.37 629.668 1005.59 635.334 L 1003.68 633.873 C 1005.28 629.274 1030.79 598.539 1035.58 592.535 z" fill="rgb(232,207,131)" transform="translate(0,0)"></path>
<path d="M 993.483 631.823 C 994.692 632.85 994.911 633.577 995.6 634.982 C 993.865 640.816 977.491 658.693 972.664 664.227 L 970.524 661.728 C 971.678 657.134 989.413 636.926 993.483 631.823 z" fill="rgb(232,207,131)" transform="translate(0,0)"></path>
<path d="M 1040.96 596.563 L 1042.65 597.971 C 1042.14 602.033 1016.53 633.541 1012.05 639.255 L 1010.69 638.031 C 1010.76 634.342 1036.68 602.099 1040.96 596.563 z" fill="rgb(232,207,131)" transform="translate(0,0)"></path>
<path d="M 1030.63 588.747 L 1031.55 589.997 C 1030.9 594.634 1003.81 626.675 998.625 632.118 L 997.451 630.586 C 997.539 627.976 1026.65 592.875 1030.63 588.747 z" fill="rgb(232,207,131)" transform="translate(0,0)"></path>
<path d="M 1012.74 645.589 L 1014.62 647.184 C 1014.18 651.782 994.847 674.148 990.866 679.005 L 988.847 676.214 C 990.589 670.257 1007.86 651.26 1012.74 645.589 z" fill="rgb(232,207,131)" transform="translate(0,0)"></path>
<path d="M 940.052 647.808 C 948.674 652.007 983.573 682.078 991.404 689.421 C 985.527 688.179 943.51 652.893 940.052 647.808 z" fill="rgb(248,244,230)" transform="translate(0,0)"></path>
<path d="M 1052.2 611.704 C 1056.11 617.679 1053.49 629.093 1049.18 634.505 C 1042.61 642.755 1037.21 645.056 1027.07 646.669 L 1026.02 645.42 C 1029.92 636.96 1047.51 652.163 1052.2 611.704 z" fill="rgb(248,244,230)" transform="translate(0,0)"></path>
<path d="M 1048.64 603.984 C 1048.58 607.797 1027.44 634.721 1023.71 639.05 L 1023.64 637.209 C 1028.89 629.514 1042.38 610.223 1048.64 603.984 z" fill="rgb(148,145,141)" transform="translate(0,0)"></path>
<path d="M 998.431 692.889 C 1002.2 694.57 1010.49 702.195 1013.62 705.171 C 1008.67 704.407 1001.2 696.919 998.431 692.889 z" fill="rgb(148,145,141)" transform="translate(0,0)"></path>
<path d="M 750.542 86.8794 C 758.426 88.0584 795.345 100.655 805.977 103.939 L 882.464 127.679 C 896.217 132.001 912.264 136.623 925.569 141.798 C 925.114 203.621 924.97 265.446 925.136 327.27 C 918.737 330.379 909.913 333.831 903.209 336.685 C 881.947 328.756 849.02 319.923 826.703 313.193 C 822.546 311.573 815.388 309.439 810.973 307.983 C 810.984 319.353 813.809 403.433 807.162 405.975 L 804.648 404.689 C 804.232 404.066 803.725 403.307 803.128 402.412 C 802.344 374.017 802.722 332.357 802.753 305.275 C 777.684 297.783 749.785 289.919 725.337 281.246 C 724.395 267.525 725.181 240.573 725.162 225.945 L 725.311 99.0044 C 731.339 95.4312 743.781 90.0414 750.542 86.8794 z" fill="rgb(30,29,35)" transform="translate(0,0)"></path>
<path d="M 733.836 107.244 C 788.479 125.127 845.468 140.83 899.116 158.635 L 899.128 327.687 C 847.533 309.274 785.957 292.53 733.139 275.749 C 733.027 220.37 732.537 162.489 733.836 107.244 z" fill="rgb(248,244,230)" transform="translate(0,0)"></path>
<path d="M 794.956 143.396 C 798.17 144.255 799.766 149.779 803.513 151.374 C 812.663 155.27 837.764 168.877 844.116 174.919 C 864.462 194.274 834.22 222.122 831.989 238.815 C 833.966 246.224 850.594 253.745 856.862 258.842 C 865.699 266.027 879.625 293.058 871.663 301.373 C 865.775 303.439 849.758 296.765 842.751 294.533 L 781.982 275.822 C 775.817 273.959 756.098 270.186 753.537 265.026 C 756.07 241.105 777.528 241.269 794.082 233.78 C 794.967 225.973 780.589 213.391 780.814 205.816 C 785.58 194.862 778.762 192.408 779.65 175.736 C 781.915 171.866 784.959 167.675 787.534 163.941 C 785.169 155.394 789.144 149.11 794.956 143.396 z" fill="rgb(30,28,35)" transform="translate(0,0)"></path>
<path d="M 790.96 243.196 C 792.34 243.298 792.112 243.279 793.418 243.636 C 795.289 255.382 804.391 260.361 815.658 262.199 C 828.745 264.947 830.009 247.941 841.918 256.158 C 856.303 266.085 862.66 277.898 866.725 294.174 L 851.951 289.507 C 840.346 285.11 766.668 264.681 762.888 260.554 C 761.354 251.263 783.522 244.92 790.96 243.196 z" fill="rgb(181,203,188)" transform="translate(0,0)"></path>
<path d="M 798.028 174.674 C 807.479 184.443 817.913 186.254 828.897 194.432 L 836.99 212.336 C 833.049 220.724 830.709 224.155 824.047 230.547 C 801.662 243.149 797.008 220.806 788.646 205.319 C 787.819 203.788 792.028 201.789 792.291 200.206 C 794.036 189.677 793.428 184.926 798.028 174.674 z" fill="rgb(248,244,230)" transform="translate(0,0)"></path>
<path d="M 793.835 166.834 C 793.681 163.178 793.082 158.006 794.559 154.842 C 799.788 154.55 823.015 170.372 829.553 173.691 C 847.661 182.885 845.333 188.686 840.491 205.931 C 836.447 191.444 836.353 188.563 822.332 181.471 C 814.588 177.555 806.091 172.387 799.837 166.453 C 799.292 165.936 797.02 166.427 796.314 166.838 L 793.835 166.834 z" fill="rgb(118,118,136)" transform="translate(0,0)"></path>
<path d="M 801.964 238.432 C 810.578 241.776 814.552 241.171 823.717 240.949 C 824.36 244.813 825.062 248.259 824.763 252.175 C 813.377 255.592 799.111 254.313 801.964 238.432 z" fill="rgb(248,244,230)" transform="translate(0,0)"></path>
<path d="M 793.835 166.834 L 796.314 166.838 C 791.271 174.726 790.69 182.761 786.729 188.318 C 781.749 182.569 789.46 171.251 793.835 166.834 z" fill="rgb(102,102,120)" transform="translate(0,0)"></path>
<path d="M 916.842 152.022 C 918.542 156.446 917.238 307.099 917.232 322.257 L 908.364 326.547 C 905.741 322.705 907.238 174.12 907.672 156.482 C 910.346 155.006 914.007 153.373 916.842 152.022 z" fill="rgb(248,244,230)" transform="translate(0,0)"></path>
<path d="M 751.745 94.8707 C 804.637 110.668 861.117 128.959 913.643 146.073 C 909.65 147.837 905.289 149.54 901.227 151.216 C 887.588 146.359 869.243 141.362 855.092 136.992 C 816.641 125.403 778.323 113.373 740.148 100.906 C 743.639 98.7975 748.035 96.7298 751.745 94.8707 z" fill="rgb(248,244,230)" transform="translate(0,0)"></path>
<path d="M 352.453 157.098 C 358.152 158.7 372.901 166 378.62 168.829 C 379.243 230.151 379.345 291.478 378.926 352.802 C 351.968 365.391 310.709 380.202 281.856 391.982 C 280.725 426.505 282.332 464.194 280.498 498.861 C 280.391 500.877 279.089 501.115 277.37 502.317 C 270.917 495.848 273.075 474.839 273.1 465.522 L 273.217 409.75 L 273.384 395.998 C 249.58 404.914 226.871 414.896 203.301 423.96 C 197.431 421.627 187.999 416.608 182.056 413.658 L 182.008 292.909 C 182.021 279.969 181.226 240.069 183.575 230.608 C 190.87 223.506 331.858 166.117 352.453 157.098 z" fill="rgb(30,29,35)" transform="translate(0,0)"></path>
<path d="M 369.918 177.123 C 371.642 179.669 370.821 331.871 370.528 348.026 C 317.73 368.488 261.804 393.438 209.364 412.862 C 208.861 408.385 209.378 374.005 209.324 367.48 L 209.047 243.209 C 260.787 223.727 318.746 199.127 369.918 177.123 z" fill="rgb(248,244,230)" transform="translate(0,0)"></path>
<path d="M 304.9 225.126 C 342.077 222.202 348.012 284.121 336.947 309.55 C 344.088 315.469 355.893 326.824 354.578 336.825 C 349.594 342.594 284.852 367.416 273.281 372.087 C 266.091 375.059 243.704 386.683 237.939 382.896 C 237.162 381.204 236.757 379.653 237.068 377.813 C 240.966 354.728 252.288 342.579 268.621 328.68 C 253.545 290.864 258.917 236.858 304.9 225.126 z" fill="rgb(30,29,35)" transform="translate(0,0)"></path>
<path d="M 323.269 313.693 C 336.701 315.451 341.545 322.592 346.966 334.065 C 320.844 343.223 283.208 359.615 257.259 370.495 L 244.877 375.363 C 248.091 364.496 250.839 359.026 257.178 350.437 C 258.631 347.519 273.473 331.951 276.146 333.967 C 293.688 347.188 311.457 329.653 323.269 313.693 z" fill="rgb(181,203,188)" transform="translate(0,0)"></path>
<path d="M 275.021 321.232 C 260.639 294.048 269.345 243.943 302.495 233.588 C 312.619 230.426 321.959 236.392 326.306 245.661 C 335.994 266.318 337.499 285.017 331.045 306.913 C 325.616 305.381 318.141 304.074 312.486 302.912 C 317.788 295.078 333.368 267.493 326.74 254.894 C 323.196 248.158 312.357 261.877 307.505 262.026 C 288.48 262.613 284.321 238.716 275.125 271.018 C 274.821 272.081 277.284 273.452 278.209 274.153 C 274.65 274.801 275.94 274.045 273.492 277.298 C 273.06 280.641 272.599 280.148 273.814 282.695 C 261.896 298.109 294.644 301.125 275.021 321.232 z" fill="rgb(102,102,120)" transform="translate(0,0)"></path>
<path d="M 287.834 261.37 C 295.581 267.885 298.619 268.397 308.991 269.286 C 313.649 267.411 316.467 266.298 320.779 263.788 C 317.872 281.349 315.185 293.134 298.1 301.922 C 283.062 299.086 281.319 295.847 273.814 282.695 C 272.599 280.148 273.06 280.641 273.492 277.298 C 275.94 274.045 274.65 274.801 278.209 274.153 C 281.997 270.43 284.857 265.788 287.834 261.37 z" fill="rgb(248,244,230)" transform="translate(0,0)"></path>
<path d="M 298.904 279.153 C 304.284 279.815 310.066 278.083 313.43 280.784 L 313.77 284.283 C 309.52 285.673 305.757 286.643 301.518 284.949 C 298.819 282.033 299.593 283.477 298.904 279.153 z" fill="rgb(30,28,35)" transform="translate(0,0)"></path>
<path d="M 306.818 306.326 C 308.298 314.644 310.293 310.465 314.075 313.772 C 313.228 320.631 295.521 329.429 289.171 330.888 C 285.64 330.934 284.336 330.628 282.646 327.954 C 282.864 325.265 289.309 311.835 290.927 308.402 C 298.733 308.253 298.911 309.156 306.818 306.326 z" fill="rgb(248,244,230)" transform="translate(0,0)"></path>
<path d="M 191.051 238.813 L 200.844 243.949 C 201.062 300.338 201.331 357.63 200.716 413.981 C 198.487 413.336 193.142 410.471 190.829 409.3 L 191.051 238.813 z" fill="rgb(248,244,230)" transform="translate(0,0)"></path>
<path d="M 351.256 165.869 C 356.221 167.245 361.221 169.593 365.976 171.654 C 349.394 176.123 325.554 187.114 309.431 193.809 C 275.838 207.997 242.106 221.851 208.238 235.367 C 203.283 237.562 200.821 235.024 196.19 232.527 C 212.091 224.394 230.701 217.323 247.158 210.195 C 281.528 195.308 317.258 181.493 351.256 165.869 z" fill="rgb(248,244,230)" transform="translate(0,0)"></path>
<metadata><recraft-signature>{"signed_by": "recraft", "signature_b64": "dTwj+KqTtUlxNKTeZK1dfjy1ApEPcWLNo59anPMHpr8Qx96Ei/+7lq80hTAqPbdUgG8Jd5JnRvYEn1qwpZGFAA==", "signing_algo": "Ed25519", "generation_timestamp": 1765699378, "identifier": "5054eba0-ad07-4c12-b674-3fe227d8ded4"}</recraft-signature></metadata></svg>