<svg xmlns="http://www.w3.org/2000/svg" height="1024" preserveAspectRatio="none" style="display: block;" version="1.1" viewBox="0 0 2048 1152" width="1820">
<path d="M 0 0 L 2048 0 L 2048 1152 L 0 1152 L 0 0 z" fill="rgb(243,227,198)" transform="translate(0,0)"></path>
<path d="M 806.411 455.486 C 829.336 448.044 847.526 436.053 869.592 427.714 C 926.765 406.11 979.442 406.579 1038.68 410.161 C 1038.61 413.591 1038.02 418.123 1039.76 420.73 C 1039.85 430.954 1039.85 441.179 1039.75 451.404 C 1039.56 472.507 1037.67 491.679 1054.25 507.983 C 1061.14 514.668 1069.68 519.401 1079 521.697 C 1093.42 525.358 1147.17 523.993 1164.72 523.913 C 1169.14 573.776 1163.36 607.993 1110.77 627.584 C 1163.26 638.098 1203.11 619.668 1237.58 580.691 C 1249.63 593.652 1262.31 615.319 1270.09 631.597 C 1372.94 594.645 1476.39 596.157 1576.19 643.2 C 1668.98 686.904 1740.68 765.599 1775.58 862.053 C 1793.98 913.813 1800.82 968.976 1795.62 1023.66 C 1794.09 1039.91 1789.98 1054.99 1788.84 1069.36 C 1787.18 1071.58 1785.88 1071.11 1782.41 1071.78 C 1791.52 1071.76 1816.37 1069.79 1822.51 1074.16 L 1822.24 1075.39 C 1820.6 1075.64 1818.96 1075.86 1817.29 1075.87 C 1786.66 1076.18 1755.99 1076.06 1725.36 1076.05 L 1555.29 1076.1 L 1024.86 1076.08 L 392.857 1076.18 L 185.311 1076.11 C 153.731 1076.11 122.133 1076.12 90.5541 1076.31 C 87.2847 1076.33 86.3674 1075.93 84.3139 1073.98 L 85.0926 1072.76 C 89.1091 1071.64 129.71 1071.88 137.568 1071.81 C 131.065 1070.37 120.593 1070.78 113.588 1070.79 C 96.8117 1014.97 95.4926 955.651 109.771 899.145 C 119.772 860.41 135.155 821.964 157.871 788.815 C 184.742 749.603 216.039 711.753 253.481 682.215 C 273.473 666.442 296.763 653.647 318.76 640.707 C 309.153 600.448 329.14 576.649 369.01 572.619 C 355.697 534.763 355.146 505.217 382.935 473.814 C 407.87 445.635 446.967 436.933 482.984 443.012 C 517.708 448.874 565.931 471.226 567.783 511.651 C 568.781 533.422 556.976 547.641 543.422 562.359 C 544.461 568.996 543.779 574.531 544.036 580.989 C 549.925 577.039 548.272 572.019 548.425 565.774 L 550.02 565.455 C 557.561 570.922 551.536 582.158 545.041 586.297 C 544.675 589.193 543.871 597.222 542.961 599.544 C 549.151 601.329 568.752 603.63 575.813 604.71 C 601.974 608.713 627.399 611.569 653.334 617.255 C 657.977 610.103 664.845 595.333 670.595 586.004 C 689.854 555.11 713.328 527.053 740.337 502.643 C 750.101 493.882 781.509 473.847 785.816 468.332 C 793.002 464.587 799.887 460.292 806.411 455.486 z" fill="rgb(0,0,0)" transform="translate(0,0)"></path>
<path d="M 806.411 455.486 C 829.336 448.044 847.526 436.053 869.592 427.714 C 926.765 406.11 979.442 406.579 1038.68 410.161 C 1038.61 413.591 1038.02 418.123 1039.76 420.73 C 1039.85 430.954 1039.85 441.179 1039.75 451.404 C 1039.56 472.507 1037.67 491.679 1054.25 507.983 C 1061.14 514.668 1069.68 519.401 1079 521.697 C 1093.42 525.358 1147.17 523.993 1164.72 523.913 C 1169.14 573.776 1163.36 607.993 1110.77 627.584 C 1163.26 638.098 1203.11 619.668 1237.58 580.691 C 1249.63 593.652 1262.31 615.319 1270.09 631.597 C 1372.94 594.645 1476.39 596.157 1576.19 643.2 C 1668.98 686.904 1740.68 765.599 1775.58 862.053 C 1793.98 913.813 1800.82 968.976 1795.62 1023.66 C 1794.09 1039.91 1789.98 1054.99 1788.84 1069.36 C 1787.18 1071.58 1785.88 1071.11 1782.41 1071.78 L 1534.9 1071.66 C 1535.13 1045.48 1534.59 1019.44 1535.9 993.267 C 1536.33 984.689 1535.65 974.858 1535.22 966.254 C 1550.38 962.772 1565.65 960.878 1580.79 957.505 C 1588.13 955.869 1593.45 953.532 1597.38 946.863 C 1599.18 943.8 1600.8 938.408 1600.26 934.9 C 1598.89 926.013 1595.58 915.778 1593.15 907.02 L 1577.34 850.136 C 1584.59 844.858 1627.72 811.034 1632.49 810.664 C 1633.92 812.583 1634.78 813.683 1636.44 815.405 L 1638.49 815.357 C 1640.78 812.934 1640.31 814.145 1640.25 810.839 C 1638.59 809.205 1637.68 808.607 1636.89 806.483 C 1637.65 805.494 1638.15 804.764 1639.44 804.744 C 1645.29 804.653 1649.05 796.108 1653.89 794.539 C 1656.28 796.784 1657.35 797.946 1660.3 799.543 C 1662.8 798.614 1661.95 799.111 1663.5 796.036 C 1661.65 792.156 1659.57 794.503 1658.23 791.065 L 1663.05 787.166 C 1663.56 785.746 1664.32 784.677 1663.45 783.54 C 1659.59 778.513 1643.82 755.092 1640.07 753.542 C 1638.23 754.485 1637.52 754.815 1635.58 755.516 L 1633.08 751.794 L 1631.48 751.657 C 1628.93 753.592 1629.38 752.703 1628.35 755.363 C 1629.53 756.889 1630.4 757.67 1630.66 759.581 C 1626.99 764.139 1625.8 764.697 1619.85 764.167 L 1618.76 764.063 C 1616.42 765.548 1616.8 764.871 1615.91 768.115 C 1613.29 777.577 1606.29 772.021 1602.55 777.293 C 1603.05 780.426 1607.35 785.692 1609.42 788.58 C 1597.67 795.964 1578.68 811.384 1566.95 820.242 C 1551.19 779.542 1523.41 776.929 1486.03 773.545 C 1483.66 765.641 1481.45 755.887 1479.4 747.766 C 1483.23 741.991 1488.96 737 1494.02 732.171 C 1503.53 748.982 1510.19 750.101 1528.34 750.324 C 1524.88 747.645 1517.98 743.381 1518.17 738.863 C 1518.61 728.263 1535.09 723.66 1540.89 715.472 C 1552.99 698.366 1528.03 691.57 1525.49 677.485 C 1524.05 669.471 1533.02 659.017 1530.86 650.225 C 1526.85 630.916 1504.11 623.542 1486.67 627.035 C 1471.61 630.053 1462.51 638.407 1454.3 650.613 C 1452.05 650.775 1449.8 650.969 1447.56 651.197 C 1397.27 656.338 1365.77 683.107 1390.39 732.854 C 1401.23 754.753 1401.41 760.526 1421.93 776.711 C 1412.48 778.517 1389.36 782.919 1383.15 789.574 C 1355.06 819.68 1328.9 853.169 1302.18 884.568 C 1287.99 901.234 1296.96 910.644 1308.12 925.197 C 1245.46 967.188 1290.99 1040.89 1338.93 1071.82 L 1034.35 1071.9 C 1032.77 1031.19 1034.32 984.604 1034 943.155 L 1087.11 943.22 C 1086.47 934.37 1086.8 922.964 1087.05 914.083 C 1052.62 913.352 1015.87 914.063 981.175 914.056 C 1005.35 870.317 1027.27 821.495 1051.9 777.058 L 832.421 777.017 C 825.9 790.887 817.234 806.52 810.167 820.376 C 797.447 845.469 785.028 870.712 772.912 896.102 C 763.314 896.695 750.145 896.118 740.291 895.965 C 729.662 887.322 720.605 883.637 707.714 880.289 C 681.949 873.598 678.754 877.912 657.431 890.611 C 642.922 878.825 626.295 871.195 607.49 875.318 L 581.183 784.07 C 574.991 762.889 566.41 726.508 553.064 709.522 C 535.029 686.565 492.35 682.988 469.915 666.558 C 467.176 664.552 468.923 650.516 469.185 647.236 C 473.714 649.6 478.363 651.728 483.112 653.613 C 504.473 662.193 511.102 652.507 523.844 636.447 C 532.521 625.51 538.074 612.497 542.961 599.544 C 549.151 601.329 568.752 603.63 575.813 604.71 C 601.974 608.713 627.399 611.569 653.334 617.255 C 657.977 610.103 664.845 595.333 670.595 586.004 C 689.854 555.11 713.328 527.053 740.337 502.643 C 750.101 493.882 781.509 473.847 785.816 468.332 C 793.002 464.587 799.887 460.292 806.411 455.486 z" fill="rgb(252,248,231)" transform="translate(0,0)"></path>
<path d="M 113.588 1070.79 C 96.8117 1014.97 95.4926 955.651 109.771 899.145 C 119.772 860.41 135.155 821.964 157.871 788.815 C 184.742 749.603 216.039 711.753 253.481 682.215 C 273.473 666.442 296.763 653.647 318.76 640.707 C 323.422 652.311 325.024 654.688 333.312 664.022 C 316.043 666.804 296.081 672.908 286.423 687.888 C 257.609 732.576 258.687 877.41 266.776 927.163 C 267.106 929.147 267.501 931.121 267.96 933.08 L 180.602 955.14 C 160.397 960.229 135.117 965.992 115.742 972.526 C 115.871 982.547 116.18 993.099 115.772 1003.07 C 129.662 999.697 145.497 994.986 158.974 992.066 C 159.007 1018.73 158.884 1045.4 158.605 1072.06 L 137.568 1071.81 C 131.065 1070.37 120.593 1070.78 113.588 1070.79 z" fill="rgb(252,248,231)" transform="translate(0,0)"></path>
<path d="M 541.229 581.163 L 539.584 583.416 C 532.933 584.077 526.085 577.482 526.039 570.971 C 528.589 568.718 528.398 572.966 533.131 572.192 C 535.083 566.034 530.455 567.582 528.023 562.996 C 529.779 559.18 534.644 556.224 538.734 558.714 C 540.887 562.394 540.913 566.64 541.296 570.913 L 541.229 581.163 z" fill="rgb(252,248,231)" transform="translate(0,0)"></path>
<path d="M 541.296 570.913 C 543.687 567.859 542.341 566.94 543.16 563.435 L 543.422 562.359 C 544.461 568.996 543.779 574.531 544.036 580.989 L 541.229 581.163 L 541.296 570.913 z" fill="rgb(55,55,53)" transform="translate(0,0)"></path>
<path d="M 351.721 942.957 C 429.968 943.946 509.982 943.075 588.388 943.054 L 1029.58 943.069 C 1029.22 985.129 1029.15 1027.19 1029.38 1069.25 L 1028.73 1071.15 C 1024.66 1072.45 987.826 1071.84 981.252 1071.84 L 872.812 1071.99 L 351.95 1071.78 L 351.721 942.957 z" fill="rgb(252,137,87)" transform="translate(0,0)"></path>
<path d="M 374.285 663.64 C 376.892 664.318 418.513 721.733 424.424 729.39 C 435.119 719.629 444.498 711.244 455.944 702.367 C 467.426 709.751 479.976 718.206 491.804 724.807 C 490.22 711.186 486.327 692.556 483.833 678.693 C 499.887 686.418 519.815 691.265 535.224 700.202 C 562.029 715.749 569.202 759.372 577.73 787.431 C 586.458 816.146 595.288 846.731 602.801 875.656 C 588.171 877.212 571.806 881.53 556.876 882.623 C 547.772 883.289 538.143 882.225 528.804 881.91 C 537.87 861.239 544.194 841.843 552.265 821.155 C 549.793 808.272 537.014 746.39 527.518 741.623 C 527.107 744.961 532.579 760.902 533.974 765.25 C 539.881 783.649 543.774 801.323 547.598 820.233 C 543.254 832.938 529.926 871.496 523.301 881.834 C 468.517 878.211 413.753 874.283 359.013 870.049 L 355.995 869.927 C 355.525 869.495 355.055 869.062 354.584 868.63 C 352.949 829.142 356.887 781.191 349.677 743.086 C 346.707 727.389 342.141 713.269 338.434 710.106 C 336.172 713.016 343.675 734.945 344.642 740.308 C 352.091 781.636 349.902 831.529 349.872 873.638 C 365.284 875.851 382.917 876.157 398.651 877.537 C 438.352 881.019 480.059 882.028 519.489 886.016 C 516.99 897.915 517.248 903.354 520.756 914.689 C 481.955 914.885 441.821 913.493 402.964 914.093 C 389.864 914.295 355.377 912.936 344.81 914.894 C 323.207 918.897 293.818 926.421 272.451 931.94 C 270.914 923.547 269.732 915.094 268.91 906.602 C 264.032 859.077 263.477 722.512 292.387 687.779 C 310.972 665.449 347.65 666.156 374.285 663.64 z" fill="rgb(201,229,218)" transform="translate(0,0)"></path>
<path d="M 849.473 781.427 C 900.506 780.534 951.804 781.502 1002.86 781.133 C 1016.27 781.036 1030.59 780.902 1043.89 781.957 C 1023.86 824.791 998.002 871.377 976.538 913.995 L 845.545 913.89 L 726.87 913.993 C 713.167 914.025 677.498 914.885 666.213 913.425 C 664.492 910.979 667.161 908.547 666.781 907.435 C 666.281 905.97 665.7 903.724 665.386 901.343 C 672.212 899.129 760.383 900.492 773.535 900.652 C 775.649 904.658 777.063 908.338 781.05 910.122 C 785.755 906.541 794.949 885.4 799.526 876.414 C 815.009 846.013 830.905 812.887 847.172 782.607 C 848.095 782.133 848.862 781.74 849.473 781.427 z" fill="rgb(87,161,185)" transform="translate(0,0)"></path>
<path d="M 917.924 826.22 C 949.346 823.113 951.521 857.307 913.907 866.008 C 878.348 867.475 882.236 833.541 917.924 826.22 z" fill="rgb(0,0,0)" transform="translate(0,0)"></path>
<path d="M 915.874 831.098 C 945.554 829.224 942.31 853.308 916.097 861.017 C 885.219 863.381 888.305 838.373 915.874 831.098 z" fill="rgb(252,248,231)" transform="translate(0,0)"></path>
<path d="M 344.943 944.149 L 346.129 944.334 C 347.895 946.768 347.199 1057.78 347.242 1071.98 C 286.746 1072.12 224.576 1071.01 164.25 1072.07 C 162.994 1070.06 163.446 999.009 163.347 990.923 C 223.974 975.701 284.507 960.11 344.943 944.149 z" fill="rgb(252,137,87)" transform="translate(0,0)"></path>
<path d="M 1489.92 778.7 C 1528.1 780.344 1546.26 786.605 1563.66 822.757 L 1482.59 885.18 C 1452.8 859.706 1430.53 862.914 1405.12 891.836 C 1400.88 896.667 1394.66 901.243 1389.31 904.883 C 1391.62 892.309 1403.4 812.133 1399.53 805.79 L 1398.01 806.669 C 1395.89 811.179 1393.56 839.941 1392.84 846.67 C 1383.84 856.126 1374.59 865.356 1365.12 874.35 C 1356.2 882.661 1341.87 896.686 1332.72 903.666 C 1341.98 915.617 1354.53 932.657 1362.84 945.024 C 1355.87 949.336 1348.81 953.511 1341.67 957.546 C 1328.39 943.183 1307.64 920.547 1299.47 902.915 C 1296.8 897.143 1311.37 879.697 1315.65 875.04 C 1340.59 847.924 1361.9 816.216 1388.86 791.279 C 1394.05 786.479 1414.92 782.731 1422.22 781.415 C 1423.72 784.002 1425.58 787.472 1427.39 789.809 C 1446.73 814.756 1479.96 807.631 1489.92 778.7 z" fill="rgb(252,137,87)" transform="translate(0,0)"></path>
<path d="M 446.634 446.36 C 457.407 444.764 473.803 444.663 483.116 450.631 C 491.861 455.91 502.923 467.063 504.864 477.764 C 512.701 520.972 459.905 541.935 429.469 550.109 C 432.076 542.578 441.43 524.057 441.713 519.413 L 440.408 519.591 C 426.387 534.402 429.979 539.682 423.319 554.616 C 421.093 553.065 418.868 552.034 416.292 551.19 C 411.878 549.735 407.066 550.099 402.921 552.201 C 392.969 557.36 390.59 570.584 395.873 579.928 C 400.244 587.659 405.103 589.974 413.282 592.419 C 410.895 606.043 410.161 618.569 406.291 631.96 C 393.442 665.247 368.997 658.338 339.4 663.321 C 316.35 643.542 311.789 607.612 337.691 587.873 C 348.49 579.643 362.203 577.301 375.379 576.151 C 363.713 539.158 355.345 515.362 382.483 480.812 C 398.693 460.174 420.845 449.463 446.634 446.36 z" fill="rgb(167,130,108)" transform="translate(0,0)"></path>
<path d="M 1348.28 917.808 C 1362.72 915.957 1376.97 915.533 1390.27 909.121 C 1410.79 899.229 1420.63 872.644 1446.04 872.358 C 1459.11 872.21 1469.77 880.145 1478.65 888.707 C 1471.92 894.268 1463.93 899.598 1456.72 904.636 C 1449.71 901.78 1445.96 901.331 1438.09 901.83 C 1420.08 902.812 1413.24 914.855 1403.08 926.342 C 1392.32 938.509 1384.42 951.414 1391.52 968.534 C 1405.65 1002.64 1446.17 993.459 1469.43 974.867 C 1473.11 971.93 1482.87 963.762 1486.76 962.431 C 1487.58 968.785 1478.72 982.353 1474.36 987.099 C 1448.81 1009.96 1449.56 1039.69 1421.9 1060.03 C 1405.26 1072.26 1390.09 1072.88 1370.43 1072.41 C 1359.27 1072.15 1347.98 1073.84 1338.51 1066.43 C 1307.36 1043.14 1277.31 1009.37 1283.23 967.524 C 1285.74 949.845 1296.76 938.016 1310.82 928.127 C 1335.23 957.714 1361.17 985.512 1384.41 1016.16 C 1394.66 1029.68 1416.19 1013.94 1404.78 998.671 C 1393.06 982.969 1377.93 969.944 1367.18 953.64 C 1365.72 951.42 1367.16 948.719 1367.97 946.68 C 1367.52 941.912 1352.03 922.713 1348.28 917.808 z" fill="rgb(253,193,94)" transform="translate(0,0)"></path>
<path d="M 432.667 918.494 C 497.585 918.832 562.505 918.744 627.422 918.228 L 1082.02 918.865 L 1082 938.318 C 1055.5 938.183 1029 938.189 1002.5 938.339 C 956.99 938.61 911.479 938.628 865.968 938.393 L 588.752 938.483 C 509.954 938.181 430.585 939.765 351.853 938.348 L 351.854 918.563 L 432.667 918.494 z" fill="rgb(252,137,87)" transform="translate(0,0)"></path>
<path d="M 406.885 554.985 C 418.525 554.424 421.452 561.354 426.186 560.473 L 425.649 556.369 C 428.064 555.806 461.138 567.177 466.475 568.889 C 468.043 578.265 471.329 586.016 480.801 589.179 C 502.295 596.356 507.21 578.859 512.342 565.042 C 513.142 576.845 509.021 584.833 511.715 592.739 C 515.252 596.588 520.437 596.69 524.714 593.856 L 524.513 592.549 C 514.114 589.583 514.044 585.553 515.683 574.992 C 516.119 572.185 517.697 570.122 520.088 568.701 C 525.917 573.525 516.748 585.529 540.743 588.04 C 538.581 597.782 536.729 605.938 531.907 614.731 C 509.281 655.985 501.552 660.85 460.904 638.913 C 449.011 632.137 436.727 619.611 430.362 616.189 L 429.072 617.128 L 429.097 619.006 C 439.435 630.328 451.785 638.282 464.758 646.149 C 463.856 655.323 463.902 660.753 465.787 669.662 L 455.593 698.975 C 439.644 689.702 408.871 669.023 393.732 658.142 C 414.034 637.439 412.443 627.374 415.909 600.376 C 416.898 592.678 417.237 593.544 422.109 589.951 L 421.379 588.374 C 415.69 584.293 403.395 587.035 400.043 579.524 C 395.103 568.451 396.561 560.648 406.885 554.985 z" fill="rgb(252,248,231)" transform="translate(0,0)"></path>
<path d="M 488.52 599.589 C 491.363 601.545 494.049 607.777 498.971 610.966 C 507.091 616.227 513.172 610 518.309 612.192 L 518.803 615.368 C 507.136 619.072 484.145 615.515 488.52 599.589 z" fill="rgb(0,0,0)" transform="translate(0,0)"></path>
<path d="M 1463.75 1005.57 C 1485.59 1012.42 1509 1012.53 1530.91 1005.9 C 1530.6 1027.85 1530.61 1049.8 1530.94 1071.74 C 1507.82 1072.15 1482.98 1071.69 1459.75 1071.62 C 1458.87 1071.53 1457.85 1071.41 1456.68 1071.28 C 1453.14 1066.43 1453.97 1053.29 1449.36 1049.68 C 1447.41 1052.61 1448.77 1067.29 1448.94 1072.02 L 1410.93 1072.32 C 1444.67 1052.72 1446.06 1038.47 1463.75 1005.57 z" fill="rgb(87,161,185)" transform="translate(0,0)"></path>
<path d="M 1394.39 728.846 C 1400.64 704.654 1427.99 689.349 1449.12 679.237 C 1455.06 688.845 1459.89 698.725 1465.03 708.712 C 1468.52 715.504 1472.53 730.059 1478.69 733.46 C 1479.57 736.595 1479.4 737.418 1479.16 740.696 C 1469.7 746.552 1467.48 769.977 1448.38 775.382 C 1418.39 783.87 1402.52 751.477 1394.39 728.846 z" fill="rgb(167,130,108)" transform="translate(0,0)"></path>
<path d="M 1452.68 735.604 C 1456.65 735.832 1464.71 737.525 1465.66 741.867 L 1464.29 743.178 L 1458.93 742.943 C 1450.76 751.428 1445.83 755.785 1434.78 759.208 C 1430.97 758.96 1425.77 758.854 1423.2 756.237 L 1424.2 754.743 C 1436.47 753.425 1455.8 752.844 1452.68 735.604 z" fill="rgb(0,0,0)" transform="translate(0,0)"></path>
<path d="M 1423.76 721.179 C 1427.26 722.749 1426.29 721.71 1427.62 724.919 C 1427.11 731.082 1421.71 736.279 1417.67 740.971 C 1424.96 740.311 1427.1 737.216 1432.51 742.678 C 1428.48 744.465 1420.56 745.948 1416.55 743.662 C 1414.21 735.429 1422.26 732.555 1423.62 722.266 L 1423.76 721.179 z" fill="rgb(0,0,0)" transform="translate(0,0)"></path>
<path d="M 1439.99 712.116 C 1443.87 712.992 1444.35 713.876 1446.27 716.945 C 1446.92 721.173 1446.19 722.748 1444.92 726.823 C 1436.33 724.991 1438.37 718.417 1439.99 712.116 z" fill="rgb(0,0,0)" transform="translate(0,0)"></path>
<path d="M 1410.74 715.117 C 1414.22 716.172 1415.83 717.14 1417.51 720.199 C 1418.22 724.118 1417.6 725.122 1416.17 728.702 C 1412.02 727.82 1411.67 727.027 1409.71 724.078 C 1409.02 720.372 1409.75 718.674 1410.74 715.117 z" fill="rgb(0,0,0)" transform="translate(0,0)"></path>
<path d="M 1442.7 700.865 C 1445.22 701.566 1447.31 702.161 1448.36 704.469 L 1446.14 706.283 C 1444.39 706.223 1443.47 706.176 1441.83 706.993 C 1437.96 708.179 1438.45 708.764 1435.46 707.312 L 1435.8 705.102 C 1437.68 702.213 1439.49 701.952 1442.7 700.865 z" fill="rgb(0,0,0)" transform="translate(0,0)"></path>
<path d="M 343.524 919.175 C 345.222 918.852 344.99 919.005 346.774 919.387 C 348.277 923.349 347.245 934.384 347.025 939.357 C 272.583 957.686 198.332 976.786 124.286 996.654 L 121.991 996.885 L 120.547 995.433 C 119.393 990.03 119.963 981.21 120.101 975.435 C 151.834 966.284 185.574 958.246 217.637 950.237 L 343.524 919.175 z" fill="rgb(252,137,87)" transform="translate(0,0)"></path>
<path d="M 1573.05 853.946 C 1575.53 856.304 1593.89 927.109 1596.34 936.246 C 1590.3 959.753 1549.26 958.216 1526.76 963.287 C 1523.59 964.093 1521.29 965.089 1518.29 964.096 C 1514.66 960.101 1515.75 945.014 1514.67 936.568 C 1529.21 934.253 1544.68 929.98 1558.94 926.165 C 1553.38 908.995 1549.46 892.396 1545.2 874.865 L 1573.05 853.946 z" fill="rgb(252,137,87)" transform="translate(0,0)"></path>
<path d="M 1610.98 791.971 C 1612.62 793.659 1621.73 807.807 1623.47 810.438 C 1573.7 845.586 1524.23 887.114 1474.09 923.193 C 1469.77 915.914 1467.15 912.162 1460.35 907.149 C 1470.75 900.019 1480.78 892.445 1490.63 884.583 C 1530.15 853.062 1571.24 823.111 1610.98 791.971 z" fill="rgb(167,130,108)" transform="translate(0,0)"></path>
<path d="M 1390.45 722.812 C 1371.87 673.406 1420.47 654.644 1460.12 654.865 C 1464.86 654.892 1470.46 656.403 1474.73 658.396 C 1484.93 663.246 1492.73 672.007 1496.38 682.694 C 1504.74 706.856 1496.47 724.041 1479.16 740.696 C 1479.4 737.418 1479.57 736.595 1478.69 733.46 C 1493.83 717.728 1489.31 695.927 1471.1 710.153 C 1465.52 699.52 1456.98 682.422 1450.15 673 C 1424.8 686.545 1403.57 696.043 1390.45 722.812 z" fill="rgb(87,161,185)" transform="translate(0,0)"></path>
<path d="M 479.197 534.468 L 479.915 533.951 C 495.798 522.379 506.314 511.989 509.45 491.772 C 516.755 505.811 526.256 519.773 534.12 533.859 C 527.483 533.818 526.202 533.291 520.879 537.158 L 521.631 538.656 C 526.12 540.971 531.641 536.913 535.148 537.899 C 536.69 541.711 537.441 548.981 536.499 552.912 C 529.994 557.162 518.79 565.366 511.711 566.59 C 507.943 563.91 511.477 563.665 507.979 560.033 C 505.597 563.518 507.708 570.403 501.862 580.704 C 483.033 594.079 459.159 577.139 476.485 558.765 C 478.845 556.262 480.474 555.883 483.709 555.886 C 487.311 557.607 489.053 562.973 492.048 567.072 L 493.759 567.062 C 503.754 553.379 479.069 542.559 467.494 564.288 C 456.727 561.78 443.117 557.217 432.346 553.853 C 454.997 547.89 459.195 544.622 479.197 534.468 z" fill="rgb(252,248,231)" transform="translate(0,0)"></path>
<path d="M 479.197 534.468 C 485.55 532.9 495.495 530.504 498.815 538.102 C 494.444 539.214 485.779 538.518 481.368 537.444 C 480.417 536.398 479.721 535.795 479.197 534.468 z" fill="rgb(0,0,0)" transform="translate(0,0)"></path>
<path d="M 1486.74 631.097 C 1505.08 628.881 1520.82 634.101 1527.57 652.239 C 1526.04 660.825 1521.74 667.405 1520.74 676.5 C 1519.38 688.941 1537.76 694.982 1538.88 705.539 C 1540.37 719.544 1521.03 721.375 1515.29 730.36 C 1511.88 735.708 1512.81 738.967 1513.95 744.577 C 1509.62 744.826 1505.04 740.05 1502.51 736.941 C 1494.12 726.786 1502.43 717.478 1503.53 706.71 C 1506.59 676.706 1490.64 653.345 1460.23 649.368 C 1468.06 638.475 1474.34 634.865 1486.74 631.097 z" fill="rgb(87,161,185)" transform="translate(0,0)"></path>
<path d="M 488.457 448.876 C 534.129 459.31 584.755 490.37 553.659 543.707 C 550.695 547.537 546.441 552.065 543.158 555.762 C 540.591 527.198 526.186 516.21 515.26 492.557 C 505.405 471.223 507.488 466.734 488.457 448.876 z" fill="rgb(167,130,108)" transform="translate(0,0)"></path>
<path d="M 615.555 878.409 C 635.71 876.096 656.233 893.95 664.107 911.59 C 656.938 902.682 630.723 880.375 618.643 886.912 C 616.666 889.381 616.932 888.341 616.784 891.128 C 620.292 892.981 625.542 891.43 630.421 892.791 C 637.015 894.631 658.651 905.093 655.97 913.554 L 653.537 914.503 C 649.144 913.844 649.594 914.54 646.434 912.089 C 626.441 898.43 607.567 898.371 587.991 913.483 C 577.364 914.025 562.705 913.717 551.811 913.774 C 548.295 904.363 547.476 898.249 545.929 888.424 C 569.066 886.421 592.543 880.651 615.555 878.409 z" fill="rgb(252,248,231)" transform="translate(0,0)"></path>
<path d="M 1486.76 962.431 C 1503.46 971.141 1513.25 970.986 1530.93 966.814 C 1531.03 975.907 1531.73 992.775 1531.03 1001.27 C 1507.01 1008.37 1489.84 1007.26 1465.46 1002.07 C 1468.57 999.027 1474.33 994.188 1475.47 990.191 L 1474.36 987.099 C 1478.72 982.353 1487.58 968.785 1486.76 962.431 z" fill="rgb(252,137,87)" transform="translate(0,0)"></path>
<path d="M 1437.84 915.393 C 1451.23 912.797 1464.21 921.514 1466.87 934.897 C 1469.53 948.28 1460.87 961.296 1447.5 964.019 C 1434.04 966.759 1420.92 958.033 1418.24 944.56 C 1415.56 931.088 1424.35 918.007 1437.84 915.393 z" fill="rgb(167,130,108)" transform="translate(0,0)"></path>
<path d="M 385.609 660.928 C 390.489 660.095 405.674 671.402 410.35 674.471 L 450.929 701.101 C 444.259 705.521 441.706 707.945 435.898 713.44 C 432.556 716.155 428.469 720.33 425.286 723.398 C 411.347 703.553 395.517 683.131 380.669 663.942 L 381.082 662.452 L 385.609 660.928 z" fill="rgb(252,248,231)" transform="translate(0,0)"></path>
<path d="M 1400.76 935.81 C 1404.46 940.609 1401.14 963.109 1419.07 972.599 C 1443.63 985.596 1462.84 975.063 1475.79 953.224 C 1487.58 949.842 1499.47 946.822 1511.44 944.168 C 1511.82 952.178 1511.83 957.437 1511.39 965.443 C 1500.85 963.368 1494.52 961.177 1484.32 957.631 C 1468 970.788 1459.62 979.126 1438.99 985.251 C 1405.94 995.066 1381.86 965.429 1400.76 935.81 z" fill="rgb(167,130,108)" transform="translate(0,0)"></path>
<path d="M 1390.03 855.788 C 1390.38 856.142 1390.93 857.405 1391.2 857.929 C 1390.2 870.95 1387.19 896.023 1383.17 907.73 C 1376.28 910.048 1350.02 914.6 1344.09 912.572 L 1339.32 904.099 C 1355.12 890.083 1375.57 870.975 1390.03 855.788 z" fill="rgb(252,248,231)" transform="translate(0,0)"></path>
<path d="M 1639.63 758.816 C 1646.54 766.673 1652.46 777.373 1659.84 784.404 L 1628.51 806.663 C 1623.73 805.03 1612.96 786.222 1609.02 780.428 C 1617.55 775.727 1631.13 764.979 1639.63 758.816 z" fill="rgb(253,193,94)" transform="translate(0,0)"></path>
<path d="M 1360.13 952.046 C 1361.48 953.252 1364.75 958.139 1366.18 960.002 C 1377.14 974.224 1389.83 987.249 1401.02 1001.24 C 1407.39 1009.21 1401.01 1016.66 1391.43 1017.02 C 1386.18 1012.26 1380.39 1004.14 1375.84 998.456 C 1365.64 985.7 1356.2 972.649 1345.27 960.456 C 1350.13 957.891 1355.32 954.79 1360.13 952.046 z" fill="rgb(167,130,108)" transform="translate(0,0)"></path>
<path d="M 1475.76 752.87 C 1476.03 753.186 1483.84 780.442 1484.02 779.185 C 1481.38 798.325 1456.97 804.908 1440.61 796.344 C 1433.15 790.598 1430.89 788.079 1426.45 779.806 C 1451.06 785.493 1464.85 773.997 1475.76 752.87 z" fill="rgb(167,130,108)" transform="translate(0,0)"></path>
<path d="M 836.382 780.583 C 839.01 781.036 839.344 780.977 841.525 782.392 C 840.595 786.219 827.728 810.74 824.892 816.437 C 810.505 845.33 795.278 873.941 781.514 903.149 C 779.402 900.926 778.054 899.907 777.519 896.833 C 782.383 883.373 830.192 787.837 836.382 780.583 z" fill="rgb(201,229,218)" transform="translate(0,0)"></path>
<path d="M 1471.25 951.342 C 1465.38 974.729 1428.97 982.101 1412.56 960.018 C 1407.44 953.201 1405.28 944.613 1406.56 936.185 C 1411.07 907.058 1449.25 894.211 1467.19 919.338 C 1469.34 922.358 1469.96 924.009 1469.36 927.636 C 1460.48 916.955 1453.15 908.646 1437.94 910.989 C 1430.2 912.201 1423.28 916.504 1418.77 922.913 C 1397.5 953.139 1444.64 991.577 1470.22 951.332 L 1471.25 951.342 z" fill="rgb(198,203,202)" transform="translate(0,0)"></path>
<path d="M 1526.23 889.858 L 1527.53 890.63 C 1530.61 896.408 1530.28 921.685 1530.4 929.471 C 1526.72 930.273 1519.02 932.319 1515.25 931.634 C 1513.88 931.383 1513.8 930.232 1513.03 928.58 C 1509.7 920.674 1507.12 914.959 1502.45 907.784 C 1510.38 901.963 1518.36 895.796 1526.23 889.858 z" fill="rgb(252,137,87)" transform="translate(0,0)"></path>
<path d="M 1498.15 910.823 C 1503.56 913.09 1509.52 933.107 1510.79 939.113 C 1504.15 940.882 1497.41 942.542 1490.73 944.231 C 1486.34 945.46 1485.16 946.611 1481.47 945.514 C 1479.71 942.358 1481.23 934.251 1478.68 925.405 L 1498.15 910.823 z" fill="rgb(253,193,94)" transform="translate(0,0)"></path>
<path d="M 1540.2 878.824 L 1541.29 879.349 C 1543.99 885.586 1550.72 914.261 1553.31 923.348 L 1542.25 926.202 C 1540.83 926.345 1535.81 927.772 1534.15 928.205 C 1534.61 911.793 1534.83 901.708 1531.73 885.604 C 1533.93 883.554 1537.73 880.749 1540.2 878.824 z" fill="rgb(252,248,231)" transform="translate(0,0)"></path>
<path d="M 469.272 672.482 C 471.825 673.794 475.751 675.395 478.476 676.61 C 480.866 686.073 484.817 705.739 485.818 715.181 L 484.808 715.479 L 479.484 712.206 C 472.913 707.955 466.306 703.76 459.664 699.62 C 462.975 690.829 466.129 681.384 469.272 672.482 z" fill="rgb(252,248,231)" transform="translate(0,0)"></path>
<path d="M 681.418 882.017 C 698.875 880.277 719.313 886.76 733.989 896.135 L 718.774 895.938 L 709.825 890.418 C 700.029 889.037 698.466 889.641 691.998 896.938 C 680.495 895.963 668.853 896.649 657.243 896.724 C 665.194 890.519 672.443 886.406 681.418 882.017 z" fill="rgb(252,248,231)" transform="translate(0,0)"></path>
<path d="M 524.616 885.422 C 529.872 885.93 536.449 885.948 541.824 886.108 C 542.025 899.138 544.85 902.867 545.804 913.386 L 544.207 914.291 C 537.716 914.144 531.222 914.491 524.732 914.749 C 522.347 903.711 521.303 896.385 524.616 885.422 z" fill="rgb(252,248,231)" transform="translate(0,0)"></path>
<path d="M 612.478 907.17 C 623.928 905.78 628.532 908.03 638.411 912.782 L 622.897 913.673 L 596.234 913.842 C 601.629 911.57 607.044 909.345 612.478 907.17 z" fill="rgb(252,248,231)" transform="translate(0,0)"></path>
<path d="M 1479.41 708.633 L 1482.9 710.63 C 1486.63 716.814 1482.74 722.482 1479 727.431 C 1472.66 720.785 1472.67 714.366 1479.41 708.633 z" fill="rgb(198,203,202)" transform="translate(0,0)"></path>
<path d="M 1470.22 951.332 L 1470.48 950.21 C 1472.01 943.446 1470.65 932.765 1473.91 929.632 C 1479.37 936.274 1477.7 945.876 1471.25 951.342 L 1470.22 951.332 z" fill="rgb(198,203,202)" transform="translate(0,0)"></path>
<path d="M 1039.76 420.73 L 1040.03 199.088 C 1040.08 181.83 1040.03 164.572 1039.87 147.315 C 1039.74 124.593 1037.07 103.956 1054.92 86.2971 C 1062.58 78.6274 1072.68 73.8725 1083.47 72.8535 C 1092.64 71.9235 1107.36 72.5433 1116.94 72.6647 C 1132.04 72.8184 1147.14 72.8512 1162.24 72.7633 L 1346.19 72.7016 L 1738.39 72.7587 C 1792.43 72.8583 1846.46 72.6894 1900.51 72.7737 C 1918.13 72.8012 1929.51 76.007 1942.34 88.9428 C 1961.6 108.354 1957.32 139.16 1957.15 164.567 L 1957.2 233.228 L 1957.18 398.327 C 1957.12 422.69 1957.11 447.131 1957.08 471.509 C 1957.06 486.569 1952.58 497.428 1941.74 508.022 C 1934.24 515.358 1921.88 521.933 1911.27 522.724 C 1892.07 524.154 1871.06 523.327 1851.61 523.305 L 1731.72 523.345 L 1264.37 523.485 C 1258.11 546.813 1251.76 560.899 1237.58 580.691 C 1203.11 619.668 1163.26 638.098 1110.77 627.584 C 1163.36 607.993 1169.14 573.776 1164.72 523.913 C 1147.17 523.993 1093.42 525.358 1079 521.697 C 1069.68 519.401 1061.14 514.668 1054.25 507.983 C 1037.67 491.679 1039.56 472.507 1039.75 451.404 C 1039.85 441.179 1039.85 430.954 1039.76 420.73 z" fill="rgb(0,0,0)" transform="translate(0,0)"></path>
<path d="M 1080.77 77.1848 C 1083.02 77.0231 1085.28 76.9102 1087.54 76.8459 C 1148.9 75.6071 1215.87 76.8207 1277.53 76.8961 L 1623.39 76.9637 L 1814.56 76.9908 L 1876.38 76.9055 C 1907.79 76.8813 1937.3 73.5462 1950.51 110.913 C 1953.16 118.395 1952.84 124.882 1952.9 132.708 L 1952.89 370.795 L 1952.91 443.181 C 1952.9 451.297 1953.38 471.895 1952.33 478.869 C 1950.9 488.598 1946.35 497.598 1939.36 504.514 C 1919.54 524.283 1886.68 519.133 1860.3 519.133 L 1760.25 519.121 L 1261.4 519.067 C 1244.2 586.637 1198.48 627.168 1127.72 625.918 C 1140.58 617.428 1149.03 611.588 1157.67 597.983 C 1172.18 575.138 1173.6 545.634 1167.65 519.824 C 1142.87 519.199 1087.93 523.5 1068.36 513.129 C 1057.74 507.5 1049.58 498.108 1046.22 486.487 C 1041.58 470.446 1044.47 437.948 1044.41 419.971 L 1044.33 274.859 L 1044.65 174.782 C 1044.67 157.652 1044.31 140.642 1044.72 123.488 C 1045.3 98.8404 1056.93 84.0208 1080.77 77.1848 z" fill="rgb(201,229,218)" transform="translate(0,0)"></path>
<path d="M 1893.4 85.5341 C 1954.68 83.4837 1945.04 133.954 1945.05 177.041 L 1945.06 275.66 C 1945.06 298.634 1946.99 472.841 1943.46 482.821 C 1941.26 489.038 1938.65 493.945 1933.92 498.62 C 1927.6 504.861 1919.84 508.981 1910.97 509.903 C 1889.57 512.131 1866.41 509.997 1844.81 510.017 L 1698.7 510.082 C 1551.15 510.107 1401.14 511.516 1253.78 509.925 C 1243.34 566.648 1210.96 605.061 1153.29 616.75 C 1170.12 597.905 1174.57 585.442 1178.71 560.417 C 1180.83 542.397 1178.45 527.428 1173.88 510.017 C 1155.46 509.946 1137.05 509.98 1118.63 510.119 C 1108.1 510.15 1091.7 510.812 1081.86 508.475 C 1075.23 506.88 1069.13 503.563 1064.19 498.858 C 1053.92 489.052 1052.11 478.147 1052.11 464.607 C 1052.09 430.662 1052.25 396.666 1052.32 362.724 L 1052.15 235.544 C 1052.31 212.418 1052.33 189.291 1052.2 166.164 C 1052.11 148.5 1048.79 113.264 1060.9 99.2386 C 1065.75 93.6306 1076.68 86.5308 1084.56 86.2611 C 1109.94 85.3916 1135.63 86.0429 1161.12 86.0053 L 1329.84 85.898 L 1893.4 85.5341 z" fill="rgb(0,0,0)" transform="translate(0,0)"></path>
<path d="M 1498.82 89.4822 L 1783.99 89.7287 L 1865.72 89.6267 C 1875.6 89.6109 1899.07 88.9827 1908.06 90.1422 C 1915.93 91.0926 1923.28 94.5643 1929.01 100.039 C 1938.02 108.529 1940.85 121.483 1940.85 133.428 C 1940.87 208.248 1940.89 283.167 1940.89 357.978 L 1940.82 430.892 C 1940.92 455.202 1947.76 501.445 1911.34 505.431 C 1894.77 507.245 1872.98 506 1856 505.99 L 1746.68 505.909 L 1376.25 505.776 C 1342.41 505.803 1288.61 505.315 1253.86 506.168 C 1250.89 506.241 1241 543.244 1234.81 553.674 C 1217.36 583.033 1197.04 600.143 1164.5 609.906 C 1183.6 580.44 1190.02 543.182 1176.98 509.525 C 1174.46 503.038 1155.48 506.163 1149.8 505.572 C 1123.87 503.135 1061.1 517.304 1057.98 477.901 C 1055.86 451.087 1056.92 417.46 1056.93 389.896 L 1056.68 245.529 L 1056.71 167.055 C 1056.55 138.851 1048.11 93.0833 1089.01 90.4055 C 1104.19 89.4118 1119.18 89.8668 1134.4 89.9196 L 1213.74 89.9326 L 1498.82 89.4822 z" fill="rgb(252,248,231)" transform="translate(0,0)"></path>
<path d="M 1606.66 349.492 C 1625.69 349.491 1644.72 349.341 1663.74 349.041 C 1664.21 360.251 1663.88 374.555 1663.9 385.996 C 1619.71 387.331 1569.92 385.957 1525.15 386.2 L 1175.75 387.245 C 1157.54 387.34 1138.96 387.25 1120.8 387.983 C 1120.54 375.536 1120.5 363.085 1120.69 350.637 L 1606.66 349.492 z" fill="rgb(0,0,0)" transform="translate(0,0)"></path>
<path d="M 1492.96 354.485 L 1659.14 353.947 L 1658.83 381.797 C 1647.4 380.643 1630 381.175 1618.09 381.225 L 1544.9 381.632 L 1292.13 382.116 C 1237.01 381.813 1180.29 382.864 1124.97 383.036 C 1125.06 373.796 1124.87 364.309 1124.79 355.048 L 1492.96 354.485 z" fill="rgb(253,193,94)" transform="translate(0,0)"></path>
<path d="M 1228.58 173.511 C 1258.81 172.818 1292.22 173.65 1322.85 173.56 L 1525.2 173.324 L 1525.11 213.586 C 1490.55 214.309 1454.9 213.896 1420.25 213.886 L 1239.58 213.866 C 1200.85 213.878 1159.69 214.537 1121.16 213.491 L 1121.28 173.719 L 1228.58 173.511 z" fill="rgb(0,0,0)" transform="translate(0,0)"></path>
<path d="M 1125.76 178.039 L 1520.89 177.863 C 1520.95 188.264 1520.76 198.664 1520.32 209.055 L 1375.97 209.407 C 1292.9 209.252 1208.82 208.592 1125.78 209.526 L 1125.76 178.039 z" fill="rgb(252,137,87)" transform="translate(0,0)"></path>
<path d="M 1191.96 260.49 L 1441.93 260.178 C 1442.01 273.106 1442.19 285.896 1441.55 298.816 C 1421.29 299.688 1396.15 299.028 1375.5 299.064 L 1203.64 299.201 L 1152.69 299.321 C 1144.36 299.327 1130.73 299.837 1122.98 298.548 C 1120.13 293.823 1121.54 267.584 1122.06 261.133 C 1140.9 259.607 1171.89 260.768 1191.96 260.49 z" fill="rgb(0,0,0)" transform="translate(0,0)"></path>
<path d="M 1125.97 264.985 L 1437.5 265.001 C 1437.54 270.49 1438.3 291.108 1435.96 294.292 L 1125.62 295.103 L 1125.97 264.985 z" fill="rgb(252,137,87)" transform="translate(0,0)"></path>
<path d="M 1670.39 151.58 C 1699.24 157.952 1731.66 166.78 1760.68 173.866 C 1754.29 203.051 1748.29 232.539 1742.54 261.765 C 1741.19 274.223 1731.32 283.526 1717.85 282.095 C 1663.77 276.349 1699.51 227.295 1739.52 255.808 C 1741.8 240.517 1745.93 222.571 1749.11 207.218 L 1748.91 205.343 C 1744.46 200.666 1680.36 186.839 1668.46 183.101 C 1661.75 204.286 1661.45 230.632 1653 250.194 C 1645.64 261.903 1617.66 259.038 1610.27 251.884 C 1586.29 228.665 1630.04 210.406 1653.55 231.884 C 1657.71 211.18 1664.95 170.632 1670.39 151.58 z" fill="rgb(0,0,0)" transform="translate(0,0)"></path>
<path d="M 1673.51 156.555 C 1691.91 163.314 1734.05 171.611 1755.41 177.277 L 1750.66 199.558 C 1726.13 192.61 1694.21 184.884 1669.35 179.148 C 1671 171.326 1672.31 164.454 1673.51 156.555 z" fill="rgb(252,137,87)" transform="translate(0,0)"></path>
<path d="M 1628.56 226.357 C 1652.85 225.744 1663.69 249.682 1632.62 253.953 C 1606.14 253.151 1596.16 230.907 1628.56 226.357 z" fill="rgb(252,137,87)" transform="translate(0,0)"></path>
<path d="M 1710.4 252.322 C 1733.41 250.829 1751.68 267.526 1723.57 277.071 C 1699.56 278.983 1679.85 259.774 1710.4 252.322 z" fill="rgb(252,137,87)" transform="translate(0,0)"></path>
<path d="M 1901.31 249.172 L 1903.4 250.139 C 1903.89 251.075 1904.6 251.899 1904.34 252.71 C 1890.93 293.174 1877.81 335 1863.43 375.17 C 1854.82 399.239 1804.47 393.888 1788.48 374.136 C 1773.33 337.85 1838.22 328.003 1864.33 358.582 L 1901.31 249.172 z" fill="rgb(0,0,0)" transform="translate(0,0)"></path>
<path d="M 1815.51 345.185 C 1858.57 341.715 1881.56 377.79 1839.06 385.906 C 1826.06 388.112 1812.73 386.052 1801.26 379.252 C 1793.9 374.887 1786.15 364.864 1792.54 356.418 C 1797.61 349.703 1807.57 346.734 1815.51 345.185 z" fill="rgb(253,193,94)" transform="translate(0,0)"></path>
<path d="M 1096.03 110.314 C 1105.93 109.24 1114.91 116.168 1116.38 126.014 C 1117.85 135.86 1111.29 145.112 1101.51 146.98 C 1094.83 148.257 1087.98 145.77 1083.67 140.501 C 1079.36 135.232 1078.29 128.027 1080.86 121.729 C 1083.44 115.43 1089.26 111.049 1096.03 110.314 z" fill="rgb(0,0,0)" transform="translate(0,0)"></path>
<path d="M 1097.25 114.581 C 1104.98 114.128 1111.66 119.945 1112.27 127.669 C 1112.88 135.394 1107.2 142.187 1099.49 142.955 C 1094.36 143.465 1089.36 141.163 1086.41 136.936 C 1083.46 132.709 1083.02 127.217 1085.27 122.579 C 1087.52 117.941 1092.1 114.882 1097.25 114.581 z" fill="rgb(252,137,87)" transform="translate(0,0)"></path>
<path d="M 1147.9 110.453 C 1157.84 109.098 1167.03 115.956 1168.55 125.866 C 1170.08 135.775 1163.38 145.079 1153.5 146.775 C 1146.95 147.898 1140.31 145.402 1136.12 140.247 C 1131.94 135.092 1130.86 128.079 1133.3 121.903 C 1135.74 115.728 1141.32 111.35 1147.9 110.453 z" fill="rgb(0,0,0)" transform="translate(0,0)"></path>
<path d="M 1148.22 114.75 C 1153.25 113.938 1158.32 115.889 1161.51 119.859 C 1164.7 123.829 1165.52 129.206 1163.64 133.941 C 1161.77 138.676 1157.49 142.039 1152.45 142.749 C 1144.76 143.831 1137.64 138.519 1136.48 130.842 C 1135.32 123.166 1140.55 115.987 1148.22 114.75 z" fill="rgb(87,161,185)" transform="translate(0,0)"></path>
<path d="M 1201.4 110.86 C 1206.97 110.451 1212.4 112.659 1216.11 116.832 C 1219.81 121.005 1221.36 126.665 1220.29 132.142 C 1218.85 139.55 1212.92 145.258 1205.46 146.415 C 1198.97 147.421 1192.45 144.792 1188.47 139.565 C 1184.49 134.337 1183.69 127.351 1186.39 121.362 C 1189.09 115.373 1194.85 111.342 1201.4 110.86 z" fill="rgb(0,0,0)" transform="translate(0,0)"></path>
<path d="M 1199.32 115.705 C 1206.4 113.911 1213.62 118.11 1215.56 125.153 C 1217.5 132.196 1213.45 139.496 1206.45 141.58 C 1201.79 142.967 1196.74 141.726 1193.26 138.337 C 1189.77 134.947 1188.39 129.938 1189.65 125.243 C 1190.91 120.547 1194.61 116.899 1199.32 115.705 z" fill="rgb(253,193,94)" transform="translate(0,0)"></path>
<path d="M 1129.95 418.573 C 1132.43 420.972 1142.53 450.502 1147.08 458.972 L 1146.47 460.438 C 1139.72 462.504 1142.19 451.149 1133.12 448.424 C 1117.19 448.743 1126.14 452.427 1117.68 463.087 L 1116.27 463.028 C 1113.48 457.634 1127.19 425.472 1129.95 418.573 z" fill="rgb(0,0,0)" transform="translate(0,0)"></path>
<path d="M 1451.54 420.222 L 1454.15 420.864 C 1458.57 425.128 1452.92 449.916 1456.51 456.929 C 1457.11 458.094 1457.3 458.967 1456.94 460.186 C 1452.07 459.745 1450.92 459.613 1446.21 461.001 L 1445.18 461.31 C 1430.72 455.183 1432.37 435.877 1449.04 436.359 L 1450.16 436.399 C 1451.29 433.963 1451.21 424.105 1451.54 420.222 z" fill="rgb(0,0,0)" transform="translate(0,0)"></path>
<path d="M 1444.3 440.517 C 1445.74 440.662 1447.13 441.167 1448.52 441.59 C 1452.71 446.559 1451.28 452.448 1447.55 457.163 C 1438.35 453.026 1438.43 448.189 1444.3 440.517 z" fill="rgb(252,248,231)" transform="translate(0,0)"></path>
<path d="M 1296.37 434.855 C 1312.04 434.683 1317.42 451.15 1302.6 460.612 C 1285.01 463.098 1283.77 444.787 1296.37 434.855 z" fill="rgb(0,0,0)" transform="translate(0,0)"></path>
<path d="M 1295.94 440.567 C 1306.95 440.303 1308.62 447.615 1302.77 455.695 C 1299.94 456.172 1299.5 456.012 1296.71 455.245 C 1291.25 450.303 1292.4 446.249 1295.94 440.567 z" fill="rgb(252,248,231)" transform="translate(0,0)"></path>
<path d="M 1540.09 421.094 C 1545.67 423.275 1543.26 424.133 1543.35 429.89 C 1543.46 436.942 1541.33 447.838 1545.2 454.117 C 1546.04 455.47 1546.36 456.197 1546.93 457.484 C 1545.82 460.173 1546.47 459.791 1544.44 460.864 C 1542.8 459.497 1542.7 459.438 1540.79 458.473 L 1536.87 461.382 C 1528.88 460.296 1524.67 453.444 1525.37 445.357 C 1526.06 437.274 1533.52 438.165 1538.56 434.381 C 1539.17 429.964 1539.68 425.533 1540.09 421.094 z" fill="rgb(0,0,0)" transform="translate(0,0)"></path>
<path d="M 1534.17 440.291 L 1537.43 440.933 C 1540.97 445.499 1539.56 452.788 1536.13 457.056 C 1535.66 456.748 1535.21 456.429 1534.76 456.1 C 1528 451.112 1529.99 445.973 1534.17 440.291 z" fill="rgb(252,248,231)" transform="translate(0,0)"></path>
<path d="M 1412.61 436.295 C 1417.47 438.396 1418.46 436.389 1422.59 436.915 C 1435.88 438.608 1434.4 462.115 1418.9 459.316 L 1418.65 459.22 C 1416.35 461.042 1419.45 465.643 1417.3 471.008 L 1415.45 471.613 C 1412.05 468.31 1411.98 441.719 1412.61 436.295 z" fill="rgb(0,0,0)" transform="translate(0,0)"></path>
<path d="M 1418.41 440.263 C 1428.08 441.794 1427.49 447.281 1424.92 455.031 C 1414.7 455.144 1417.05 447.499 1418.41 440.263 z" fill="rgb(252,248,231)" transform="translate(0,0)"></path>
<path d="M 1469.17 436.674 C 1476.33 437.608 1476.63 440.672 1478.28 447.026 C 1479.31 450.971 1480.78 455.297 1480.78 459.383 C 1474.44 459.695 1471.18 460.898 1465.46 461.52 C 1449.52 451.284 1471.61 446.846 1473.53 443.426 C 1470.94 441.893 1466.73 442.025 1463.53 441.816 L 1463.61 440.355 L 1464.24 441.367 C 1465.28 437.994 1465.18 438.93 1469.17 436.674 z" fill="rgb(0,0,0)" transform="translate(0,0)"></path>
<path d="M 1231.85 435.71 C 1238.07 435.301 1245.67 437.602 1244.84 445.201 C 1242.49 447.975 1236 449.036 1231.96 450.292 L 1231.33 451.847 C 1235.52 456.973 1237.3 456.189 1243.65 456.076 L 1244.43 456.699 L 1243.39 458.38 C 1228.11 466.664 1219.11 449.287 1231.85 435.71 z" fill="rgb(0,0,0)" transform="translate(0,0)"></path>
<path d="M 1316.34 435.239 C 1322.03 436.677 1317.57 436.695 1322.21 437.994 C 1336.8 432.171 1339.78 451.183 1335.78 460.03 L 1334.27 460.325 C 1331.93 457.704 1331.97 453.967 1331.57 450.401 C 1330.88 446.937 1330.27 442.26 1326.6 441.123 C 1323.34 442.699 1320.02 456.725 1318.48 461.121 L 1317.09 461.055 L 1317.69 461.962 C 1315.41 457.282 1316.06 441.104 1316.34 435.239 z" fill="rgb(0,0,0)" transform="translate(0,0)"></path>
<path d="M 1508.19 436.893 C 1512.19 436.459 1515.15 437.561 1519.03 438.621 C 1519.85 439.424 1521.08 440.236 1521.07 441.12 C 1521.04 444.723 1511.68 451.191 1508.53 453.671 L 1508.87 455.267 C 1513.62 456.333 1514.9 456.042 1519.79 455.383 L 1520.79 455.959 L 1520.69 457.629 C 1505.14 469.052 1496.92 449.314 1508.19 436.893 z" fill="rgb(0,0,0)" transform="translate(0,0)"></path>
<path d="M 1387.61 435.202 C 1396.09 438.987 1386.69 453.535 1396.24 456.208 C 1400.14 453.696 1399.71 441.814 1402.6 436.936 L 1403.9 437.348 C 1405.09 439.399 1405.11 442.112 1405.38 444.56 C 1405.34 445.498 1405.28 446.436 1405.22 447.373 C 1403.87 466.913 1388.34 466.494 1386.09 448.395 C 1385.77 445.852 1387.17 438.104 1387.61 435.202 z" fill="rgb(0,0,0)" transform="translate(0,0)"></path>
<path d="M 1486.86 427.171 C 1491.28 428.435 1490.64 429.569 1490.56 433.607 C 1493.01 437.981 1493.74 434.122 1500.04 437.008 L 1500.35 438.465 C 1498.45 440.993 1496.3 440.419 1492.14 441.257 C 1488.93 444.702 1489.59 451.144 1492.36 454.767 C 1495.78 456.165 1494.25 456.004 1498.64 454.504 L 1499.96 455.99 L 1499.48 457.935 C 1496.78 460.252 1496.39 460.407 1492.87 460.987 C 1482.26 457.961 1485.22 435.729 1486.86 427.171 z" fill="rgb(0,0,0)" transform="translate(0,0)"></path>
<path d="M 1347.12 433.773 C 1352.08 433.834 1354.06 434.188 1357.15 438.171 C 1354.95 441.091 1351.78 437.53 1346.49 440.766 L 1346.55 442.601 C 1350.01 448.806 1355.91 445.716 1357.33 454.203 C 1356.02 458.179 1355.45 458.644 1352.59 461.587 C 1347.38 462.245 1345.89 461.375 1341.81 458.663 L 1342.06 457.497 C 1345.88 456.697 1347.65 456.43 1351.24 454.827 L 1351.68 453.108 C 1347.82 447.311 1342.31 448.035 1341.41 440.785 C 1342.9 436.87 1343.87 436.36 1347.12 433.773 z" fill="rgb(0,0,0)" transform="translate(0,0)"></path>
<path d="M 1273.14 434.869 L 1273.86 434.826 C 1279.23 434.556 1280.06 434.855 1283.81 438.237 C 1283.05 439.589 1278.08 439.479 1274.47 441.105 C 1272.83 447.79 1282.37 445.779 1284.62 454.244 C 1284.01 457.642 1282.79 458.677 1280.58 461.235 C 1274.96 462.277 1273.69 461.741 1269.01 459.184 L 1269.14 457.949 C 1272.99 456.902 1274.77 456.447 1278.43 454.77 C 1279.93 448.78 1270.56 450.296 1268.64 442.339 C 1269.43 438.618 1270.66 437.63 1273.14 434.869 z" fill="rgb(0,0,0)" transform="translate(0,0)"></path>
<path d="M 1254.03 434.776 C 1260.08 434.639 1260.77 433.954 1264.9 438.563 C 1262.89 440.707 1258.93 438.155 1254.23 440.8 C 1253.66 447.144 1262.27 446.287 1264.48 453.709 C 1263.8 457.241 1262.55 458.203 1260.15 460.777 C 1255.24 462.205 1250.6 461.628 1248.4 456.669 C 1250.71 453.552 1254.51 457.911 1258.85 455.21 C 1259.2 448.037 1251.49 449.819 1249.48 442.416 C 1250.45 438.429 1251.29 437.785 1254.03 434.776 z" fill="rgb(0,0,0)" transform="translate(0,0)"></path>
<path d="M 1211.93 418.049 L 1215.22 419.372 C 1218.2 425.656 1217.07 453.096 1216.88 461.372 L 1213.55 460.401 C 1210.78 455.584 1211.87 425.214 1211.93 418.049 z" fill="rgb(0,0,0)" transform="translate(0,0)"></path>
<path d="M 1171.86 419.155 L 1174.6 420.02 C 1176.94 423.258 1176.73 454.963 1176.36 460.75 C 1174.7 460.411 1174 459.911 1172.55 459.107 C 1169.87 454.048 1171.44 426.218 1171.86 419.155 z" fill="rgb(0,0,0)" transform="translate(0,0)"></path>
<path d="M 1156.01 418.448 C 1156.72 418.78 1157.93 419.683 1158.64 420.164 C 1160.86 425.197 1160.76 455.045 1159.16 460.686 L 1156.62 459.47 C 1154.01 454.732 1154.84 424.689 1156.01 418.448 z" fill="rgb(0,0,0)" transform="translate(0,0)"></path>
<path d="M 785.816 468.332 C 710.826 507.422 618.35 480.27 576.396 406.844 C 534.442 333.418 558.006 239.963 629.759 195.207 C 701.512 150.451 795.806 170.392 843.297 240.365 C 890.787 310.338 874.499 405.331 806.411 455.486 C 799.887 460.292 793.002 464.587 785.816 468.332 z" fill="rgb(0,0,0)" transform="translate(0,0)"></path>
<path d="M 705.118 175.897 C 789.638 171.45 861.719 236.45 866.004 320.978 C 870.289 405.507 805.151 477.463 720.615 481.586 C 636.307 485.698 564.588 420.775 560.314 336.475 C 556.041 252.176 620.827 180.332 705.118 175.897 z" fill="rgb(252,137,87)" transform="translate(0,0)"></path>
<path d="M 709.225 189.875 C 785.816 187.825 849.634 248.12 851.931 324.705 C 854.229 401.29 794.141 465.302 717.564 467.848 C 640.636 470.405 576.265 409.981 573.957 333.044 C 571.649 256.108 632.281 191.934 709.225 189.875 z" fill="rgb(0,0,0)" transform="translate(0,0)"></path>
<path d="M 700.57 194.766 C 774.935 187.944 840.652 242.934 847.05 317.336 C 853.448 391.739 798.084 457.141 723.646 463.115 C 649.806 469.041 585.043 414.218 578.696 340.413 C 572.35 266.608 626.802 201.533 700.57 194.766 z" fill="rgb(252,248,231)" transform="translate(0,0)"></path>
<path d="M 722.114 286.574 L 723.065 287.396 C 725.465 292.011 720.564 322.609 719.661 329.633 C 712.346 335.855 698.565 345.715 690.428 350.687 L 689.224 348.515 C 690.662 344.323 709.664 332.539 715.522 327.482 C 717.569 317.185 717.782 294.294 722.114 286.574 z" fill="rgb(0,0,0)" transform="translate(0,0)"></path>
<path d="M 762.885 398.39 C 763.699 398.628 765.527 399.311 766.035 399.949 C 771.428 406.735 786.87 422.169 787.72 430.449 C 781.803 428.764 763.334 405.246 762.885 398.39 z" fill="rgb(0,0,0)" transform="translate(0,0)"></path>
<path d="M 642.982 374.853 L 644.279 376.302 C 643.314 380.776 621.2 396.674 615.497 401.183 C 615.053 400.688 614.049 399.051 613.627 398.404 C 615.247 393.617 638.032 378.361 642.982 374.853 z" fill="rgb(0,0,0)" transform="translate(0,0)"></path>
<path d="M 736.132 209.112 L 738.793 210.353 C 740.454 214.407 733.1 240.144 731.515 245.77 L 729.157 244.832 C 727.517 239.567 734.241 215.44 736.132 209.112 z" fill="rgb(0,0,0)" transform="translate(0,0)"></path>
<path d="M 814.241 261.721 C 814.694 261.879 815.846 262.801 816.298 263.132 C 815.267 267.045 794.566 279.224 789.948 282.259 L 787.887 281.781 L 787.016 280.076 C 789.438 275.256 808.536 265.022 814.241 261.721 z" fill="rgb(0,0,0)" transform="translate(0,0)"></path>
<path d="M 802.09 344.11 C 807.545 343.668 827.791 348.188 834.087 349.546 C 836.875 350.148 836.713 350.689 837.733 352.688 C 830.938 353.778 809.917 350.421 803.142 346.997 C 802.417 346.631 802.343 345.187 802.09 344.11 z" fill="rgb(0,0,0)" transform="translate(0,0)"></path>
<path d="M 638.737 229.445 C 645.229 230.24 660.757 252.3 661.914 258.65 L 660.878 258.386 C 655.891 257.167 640.07 234.761 638.737 229.445 z" fill="rgb(0,0,0)" transform="translate(0,0)"></path>
<path d="M 590.86 305.842 C 597.114 307.065 618.968 311.599 622.669 315.636 L 622.534 318.152 C 615.953 316.369 594.638 312.243 590.596 308.861 L 590.86 305.842 z" fill="rgb(0,0,0)" transform="translate(0,0)"></path>
<path d="M 697.192 419.239 C 698.316 419.771 699.957 420.23 700.021 421.144 C 700.542 428.529 696.021 445.932 693.299 451.856 L 691.131 450.944 C 689.608 446.894 695.755 424.977 697.192 419.239 z" fill="rgb(0,0,0)" transform="translate(0,0)"></path>
<path d="M 394.703 200.851 C 421.815 208.608 450.034 214.612 477.368 222.486 C 470.504 250.275 462.605 277.947 455.64 305.73 C 454.835 308.479 454.03 311.608 452.893 314.208 C 445.843 330.307 410.002 326.854 406.311 309.873 C 404.102 299.707 413.065 292.751 422.156 291.108 C 432.231 289.208 442.644 291.564 450.92 297.617 C 451.227 297.846 451.534 298.076 451.842 298.305 C 454.833 295.354 462.223 263.749 463.894 257.226 L 464.648 252.897 C 462.25 250.469 398.206 234.292 390.634 232.363 C 387.287 243.936 379.562 284.614 373.653 291.349 C 369.339 296.265 362.42 298.524 356.056 298.911 C 347.738 299.418 338.221 296.834 332.037 291.053 C 329.061 288.272 326.873 284.562 326.905 280.379 C 326.901 276.66 328.352 273.086 330.947 270.422 C 342.463 258.704 364.304 264.628 375.01 275.703 C 381.973 250.572 386.933 226.202 394.703 200.851 z" fill="rgb(0,0,0)" transform="translate(0,0)"></path>
<path d="M 396.842 206.193 C 419.297 210.697 449.916 219.689 472.569 225.62 C 470.342 232.485 468.385 240.711 466.538 247.799 C 444.074 243.437 414.924 233.987 391.632 228.216 C 393.511 220.91 395.248 213.567 396.842 206.193 z" fill="rgb(252,248,231)" transform="translate(0,0)"></path>
<path d="M 347.025 268.403 C 370.462 268.192 385.903 287.998 356.949 294.723 C 332.786 293.326 318.289 273.596 347.025 268.403 z" fill="rgb(253,193,94)" transform="translate(0,0)"></path>
<path d="M 422.239 295.126 C 430.322 294.714 453.352 296.067 449.612 312.137 C 448.717 315.982 441.356 318.65 437.627 319.93 C 418.467 321.784 395.193 306.933 422.239 295.126 z" fill="rgb(253,193,94)" transform="translate(0,0)"></path>
<path d="M 271.766 361.38 C 273.448 361.529 272.62 361.353 274.244 362.827 C 277.133 372.265 296.087 450.668 295.768 453.818 C 295.159 459.321 292.314 464.332 287.901 467.675 C 278.311 475.085 258.979 476.867 251.358 465.834 C 249.524 463.23 248.854 459.981 249.508 456.864 C 253.152 439.535 273.924 436.096 288.639 440.055 C 285.031 425.604 281.275 406.304 276.55 392.782 C 256.341 398.703 224.543 405.105 203.201 409.979 C 203.101 410.076 202.978 410.154 202.901 410.27 C 200.224 414.332 212.939 462.423 214.917 471.331 C 208.017 484.964 195.912 491.587 180.541 488.582 C 161.868 484.931 166.54 464.649 180.239 457.826 C 190.151 452.888 196.267 453.129 206.86 455.974 C 201.601 430.734 195.262 405.659 190.025 380.419 C 205.922 377.654 256.314 365.925 271.766 361.38 z" fill="rgb(0,0,0)" transform="translate(0,0)"></path>
<path d="M 267.728 367.194 L 269.463 366.874 C 273.053 369.596 274.882 383.028 275.954 388.171 C 265.009 392.381 218.269 401.844 204.22 405.039 C 201.651 405.589 202.889 405.653 200.376 404.804 C 197.694 400.218 196.456 389.66 195.446 383.876 C 216.564 379.988 245.669 372.174 267.728 367.194 z" fill="rgb(252,248,231)" transform="translate(0,0)"></path>
<path d="M 274.623 442.288 C 302.151 443.208 292.998 464.702 271.155 469.88 C 244.522 469.384 251.065 447.164 274.623 442.288 z" fill="rgb(253,193,94)" transform="translate(0,0)"></path>
<path d="M 193.542 458.327 C 220.423 457.94 211.856 480.076 188.805 484.93 C 161.771 484.458 170.324 462.3 193.542 458.327 z" fill="rgb(253,193,94)" transform="translate(0,0)"></path>
<metadata><recraft-signature>{"signed_by": "recraft", "signature_b64": "RWwFbOgYOSvz0N+WTyWRlFD8aj+g0feNV0dbDnArDGL89SrXxYXZ4YsxeWv5ViJDTvdJk+xpZhSWJ0hEY0q5Aw==", "signing_algo": "Ed25519", "generation_timestamp": 1765699347, "identifier": "d9fc36a1-0ba3-4162-8f84-6b8623be3b90"}</recraft-signature></metadata></svg>